<svg width="79" height="33" viewBox="0 0 79 33" fill="none" xmlns="http://www.w3.org/2000/svg">
<path d="M0 24.713L4.0247 0H9.28504L13.3097 24.713H9.42626L8.72017 19.8057V19.8763H4.30713L3.60104 24.713H0ZM4.76609 16.5224H8.26122L6.5313 4.30713H6.4607L4.76609 16.5224Z" fill="#213F7D"/>
<path d="M14.8138 24.713V0H20.5331C24.4166 0 26.323 2.15356 26.323 6.10765V8.54365C26.323 12.4977 24.4166 14.6513 20.5331 14.6513H18.6973V24.713H14.8138ZM18.6973 11.1209H20.5331C21.7688 11.1209 22.4396 10.556 22.4396 8.79078V5.86052C22.4396 4.0953 21.7688 3.53044 20.5331 3.53044H18.6973V11.1209Z" fill="#213F7D"/>
<path d="M28.0522 24.713V0H38.6435V3.53044H31.9357V10.0617H37.2666V13.5922H31.9357V21.1826H38.6435V24.713H28.0522Z" fill="#213F7D"/>
<path d="M40.4976 24.713V0H46.2522C50.2769 0 52.0068 1.87113 52.0068 5.684V7.20209C52.0068 9.744 51.1948 11.368 49.4649 12.0741V12.1447C51.4067 12.7449 52.0421 14.5807 52.0421 17.3697V21.7122C52.0421 22.9125 52.0774 23.7951 52.4658 24.713H48.5117C48.2999 24.0776 48.1587 23.6892 48.1587 21.6769V17.1579C48.1587 14.8631 47.4879 14.1217 45.7227 14.1217H44.3811V24.713H40.4976ZM44.3811 10.5913H45.7933C47.2407 10.5913 48.1233 9.95583 48.1233 7.97878V6.07235C48.1233 4.30713 47.5232 3.53044 46.1463 3.53044H44.3811V10.5913Z" fill="#213F7D"/>
<path d="M57.3238 24.713V3.53044H53.2638V0H65.2673V3.53044H61.2073V24.713H57.3238Z" fill="#213F7D"/>
<path d="M64.1233 24.713L68.1479 0H73.4083L77.433 24.713H73.5495L72.8434 19.8057V19.8763H68.4304L67.7243 24.713H64.1233ZM68.8893 16.5224H72.3845L70.6546 4.30713H70.584L68.8893 16.5224Z" fill="#213F7D"/>
<path d="M15.223 31.5955V27.8308H16.5073C16.8054 27.8308 17.0492 27.8841 17.2385 27.9907C17.429 28.0961 17.5701 28.2389 17.6616 28.419C17.7532 28.5992 17.799 28.8001 17.799 29.022C17.799 29.2438 17.7532 29.4454 17.6616 29.6267C17.5713 29.8081 17.4315 29.9527 17.2422 30.0606C17.0529 30.1672 16.8104 30.2205 16.5147 30.2205H15.5941V29.8161H16.4998C16.704 29.8161 16.8679 29.7811 16.9917 29.7113C17.1154 29.6414 17.2051 29.5471 17.2608 29.4282C17.3177 29.3081 17.3461 29.1727 17.3461 29.022C17.3461 28.8712 17.3177 28.7364 17.2608 28.6175C17.2051 28.4987 17.1148 28.4055 16.9898 28.3381C16.8648 28.2695 16.699 28.2352 16.4924 28.2352H15.6832V31.5955H15.223Z" fill="#545A69"/>
<path d="M19.5522 31.6543C19.2949 31.6543 19.0691 31.5936 18.8748 31.4723C18.6818 31.351 18.5309 31.1813 18.422 30.9631C18.3143 30.745 18.2605 30.4901 18.2605 30.1984C18.2605 29.9043 18.3143 29.6476 18.422 29.4282C18.5309 29.2088 18.6818 29.0385 18.8748 28.9172C19.0691 28.7959 19.2949 28.7352 19.5522 28.7352C19.8096 28.7352 20.0348 28.7959 20.2278 28.9172C20.4221 29.0385 20.573 29.2088 20.6806 29.4282C20.7895 29.6476 20.844 29.9043 20.844 30.1984C20.844 30.4901 20.7895 30.745 20.6806 30.9631C20.573 31.1813 20.4221 31.351 20.2278 31.4723C20.0348 31.5936 19.8096 31.6543 19.5522 31.6543ZM19.5522 31.2646C19.7477 31.2646 19.9086 31.215 20.0348 31.1157C20.161 31.0164 20.2544 30.8859 20.315 30.7242C20.3757 30.5624 20.406 30.3872 20.406 30.1984C20.406 30.0097 20.3757 29.8338 20.315 29.6709C20.2544 29.5079 20.161 29.3761 20.0348 29.2756C19.9086 29.1751 19.7477 29.1249 19.5522 29.1249C19.3568 29.1249 19.1959 29.1751 19.0697 29.2756C18.9435 29.3761 18.8501 29.5079 18.7895 29.6709C18.7288 29.8338 18.6985 30.0097 18.6985 30.1984C18.6985 30.3872 18.7288 30.5624 18.7895 30.7242C18.8501 30.8859 18.9435 31.0164 19.0697 31.1157C19.1959 31.215 19.3568 31.2646 19.5522 31.2646Z" fill="#545A69"/>
<path d="M22.0052 31.5955L21.1366 28.772H21.5969L22.2131 30.9337H22.2428L22.8515 28.772H23.3192L23.9205 30.9264H23.9502L24.5664 28.772H25.0266L24.1581 31.5955H23.7275L23.1039 29.4264H23.0594L22.4358 31.5955H22.0052Z" fill="#545A69"/>
<path d="M26.6477 31.6543C26.373 31.6543 26.1361 31.5943 25.9369 31.4742C25.7389 31.3528 25.5861 31.1837 25.4784 30.9668C25.372 30.7487 25.3188 30.495 25.3188 30.2058C25.3188 29.9166 25.372 29.6617 25.4784 29.4411C25.5861 29.2193 25.7358 29.0465 25.9276 28.9227C26.1206 28.7977 26.3458 28.7352 26.6031 28.7352C26.7516 28.7352 26.8982 28.7597 27.043 28.8087C27.1877 28.8577 27.3195 28.9374 27.4383 29.0477C27.5571 29.1568 27.6517 29.3014 27.7222 29.4815C27.7928 29.6617 27.828 29.8835 27.828 30.147V30.3308H25.6306V29.9558H27.3826C27.3826 29.7965 27.3504 29.6543 27.2861 29.5293C27.223 29.4043 27.1327 29.3057 27.0151 29.2334C26.8988 29.1611 26.7615 29.1249 26.6031 29.1249C26.4287 29.1249 26.2777 29.1678 26.1503 29.2536C26.0241 29.3381 25.927 29.4484 25.8589 29.5845C25.7909 29.7205 25.7568 29.8663 25.7568 30.022V30.272C25.7568 30.4852 25.7939 30.666 25.8682 30.8142C25.9437 30.9613 26.0482 31.0734 26.1818 31.1506C26.3155 31.2266 26.4707 31.2646 26.6477 31.2646C26.7627 31.2646 26.8667 31.2487 26.9595 31.2168C27.0535 31.1837 27.1345 31.1347 27.2026 31.0698C27.2706 31.0036 27.3232 30.9215 27.3603 30.8234L27.7835 30.9411C27.739 31.0832 27.6641 31.2082 27.5589 31.3161C27.4538 31.4227 27.3238 31.506 27.1692 31.5661C27.0145 31.6249 26.8407 31.6543 26.6477 31.6543Z" fill="#545A69"/>
<path d="M28.4381 31.5955V28.772H28.8612V29.1984H28.8909C28.9429 29.0587 29.0369 28.9454 29.173 28.8584C29.3091 28.7713 29.4625 28.7278 29.6333 28.7278C29.6654 28.7278 29.7057 28.7285 29.7539 28.7297C29.8022 28.7309 29.8387 28.7327 29.8634 28.7352V29.1764C29.8486 29.1727 29.8145 29.1672 29.7613 29.1598C29.7094 29.1512 29.6543 29.147 29.5962 29.147C29.4576 29.147 29.3338 29.1758 29.225 29.2334C29.1173 29.2897 29.032 29.3682 28.9689 29.4686C28.907 29.5679 28.8761 29.6813 28.8761 29.8087V31.5955H28.4381Z" fill="#545A69"/>
<path d="M31.4348 31.6543C31.1601 31.6543 30.9232 31.5943 30.724 31.4742C30.526 31.3528 30.3732 31.1837 30.2656 30.9668C30.1592 30.7487 30.106 30.495 30.106 30.2058C30.106 29.9166 30.1592 29.6617 30.2656 29.4411C30.3732 29.2193 30.5229 29.0465 30.7147 28.9227C30.9077 28.7977 31.1329 28.7352 31.3903 28.7352C31.5387 28.7352 31.6853 28.7597 31.8301 28.8087C31.9749 28.8577 32.1066 28.9374 32.2254 29.0477C32.3442 29.1568 32.4388 29.3014 32.5094 29.4815C32.5799 29.6617 32.6152 29.8835 32.6152 30.147V30.3308H30.4177V29.9558H32.1697C32.1697 29.7965 32.1376 29.6543 32.0732 29.5293C32.0101 29.4043 31.9198 29.3057 31.8023 29.2334C31.686 29.1611 31.5486 29.1249 31.3903 29.1249C31.2158 29.1249 31.0648 29.1678 30.9374 29.2536C30.8112 29.3381 30.7141 29.4484 30.646 29.5845C30.578 29.7205 30.544 29.8663 30.544 30.022V30.272C30.544 30.4852 30.5811 30.666 30.6553 30.8142C30.7308 30.9613 30.8353 31.0734 30.969 31.1506C31.1026 31.2266 31.2579 31.2646 31.4348 31.2646C31.5499 31.2646 31.6538 31.2487 31.7466 31.2168C31.8406 31.1837 31.9217 31.1347 31.9897 31.0698C32.0578 31.0036 32.1103 30.9215 32.1475 30.8234L32.5706 30.9411C32.5261 31.0832 32.4512 31.2082 32.3461 31.3161C32.2409 31.4227 32.111 31.506 31.9563 31.5661C31.8016 31.6249 31.6278 31.6543 31.4348 31.6543Z" fill="#545A69"/>
<path d="M34.3016 31.6543C34.0641 31.6543 33.8543 31.5949 33.6725 31.476C33.4906 31.3559 33.3483 31.1868 33.2456 30.9686C33.1429 30.7493 33.0916 30.4901 33.0916 30.1911C33.0916 29.8945 33.1429 29.6372 33.2456 29.419C33.3483 29.2009 33.4912 29.0324 33.6743 28.9135C33.8574 28.7946 34.069 28.7352 34.309 28.7352C34.4946 28.7352 34.6412 28.7658 34.7489 28.8271C34.8578 28.8872 34.9407 28.9558 34.9976 29.033C35.0557 29.109 35.1009 29.1715 35.1331 29.2205H35.1702V27.8308H35.6082V31.5955H35.185V31.1617H35.1331C35.1009 31.2131 35.0551 31.2781 34.9957 31.3565C34.9363 31.4337 34.8516 31.503 34.7415 31.5642C34.6313 31.6243 34.4847 31.6543 34.3016 31.6543ZM34.361 31.2646C34.5367 31.2646 34.6852 31.2193 34.8064 31.1286C34.9277 31.0367 35.0199 30.9098 35.083 30.7481C35.1461 30.5851 35.1776 30.397 35.1776 30.1837C35.1776 29.9729 35.1467 29.7885 35.0848 29.6304C35.0229 29.4711 34.9314 29.3473 34.8101 29.2591C34.6889 29.1696 34.5392 29.1249 34.361 29.1249C34.1754 29.1249 34.0208 29.1721 33.897 29.2664C33.7745 29.3596 33.6824 29.4864 33.6205 29.647C33.5599 29.8063 33.5296 29.9852 33.5296 30.1837C33.5296 30.3847 33.5605 30.5673 33.6223 30.7315C33.6854 30.8945 33.7782 31.0244 33.9007 31.1212C34.0245 31.2168 34.1779 31.2646 34.361 31.2646Z" fill="#545A69"/>
<path d="M37.888 31.5955V27.8308H38.326V29.2205H38.3631C38.3952 29.1715 38.4398 29.109 38.4967 29.033C38.5549 28.9558 38.6377 28.8872 38.7454 28.8271C38.8543 28.7658 39.0015 28.7352 39.1871 28.7352C39.4271 28.7352 39.6387 28.7946 39.8218 28.9135C40.0049 29.0324 40.1478 29.2009 40.2505 29.419C40.3532 29.6372 40.4046 29.8945 40.4046 30.1911C40.4046 30.4901 40.3532 30.7493 40.2505 30.9686C40.1478 31.1868 40.0056 31.3559 39.8237 31.476C39.6418 31.5949 39.4321 31.6543 39.1945 31.6543C39.0114 31.6543 38.8648 31.6243 38.7547 31.5642C38.6446 31.503 38.5598 31.4337 38.5004 31.3565C38.441 31.2781 38.3952 31.2131 38.3631 31.1617H38.3111V31.5955H37.888ZM38.3185 30.1837C38.3185 30.397 38.3501 30.5851 38.4132 30.7481C38.4763 30.9098 38.5685 31.0367 38.6897 31.1286C38.811 31.2193 38.9594 31.2646 39.1351 31.2646C39.3183 31.2646 39.4711 31.2168 39.5935 31.1212C39.7173 31.0244 39.8101 30.8945 39.8719 30.7315C39.935 30.5673 39.9666 30.3847 39.9666 30.1837C39.9666 29.9852 39.9357 29.8063 39.8738 29.647C39.8132 29.4864 39.721 29.3596 39.5973 29.2664C39.4748 29.1721 39.3207 29.1249 39.1351 29.1249C38.957 29.1249 38.8073 29.1696 38.686 29.2591C38.5647 29.3473 38.4732 29.4711 38.4113 29.6304C38.3495 29.7885 38.3185 29.9729 38.3185 30.1837Z" fill="#545A69"/>
<path d="M41.1983 32.6543C41.1241 32.6543 41.0579 32.6482 40.9998 32.6359C40.9416 32.6249 40.9014 32.6139 40.8791 32.6028L40.9905 32.2205C41.0969 32.2474 41.1909 32.2573 41.2726 32.2499C41.3542 32.2425 41.4266 32.2064 41.4897 32.1414C41.5541 32.0777 41.6128 31.9742 41.666 31.8308L41.7477 31.6102L40.6935 28.772H41.1686L41.9556 31.022H41.9853L42.7722 28.772H43.2473L42.0372 32.0073C41.9828 32.1531 41.9153 32.2738 41.8349 32.3694C41.7545 32.4662 41.6611 32.5379 41.5547 32.5845C41.4495 32.631 41.3307 32.6543 41.1983 32.6543Z" fill="#545A69"/>
<path d="M48.4492 29.7131C48.4492 30.1102 48.3768 30.4533 48.2321 30.7425C48.0873 31.0318 47.8887 31.2548 47.6363 31.4117C47.3839 31.5685 47.0956 31.647 46.7714 31.647C46.4473 31.647 46.159 31.5685 45.9066 31.4117C45.6542 31.2548 45.4556 31.0318 45.3108 30.7425C45.1661 30.4533 45.0937 30.1102 45.0937 29.7131C45.0937 29.3161 45.1661 28.9729 45.3108 28.6837C45.4556 28.3945 45.6542 28.1715 45.9066 28.0146C46.159 27.8577 46.4473 27.7793 46.7714 27.7793C47.0956 27.7793 47.3839 27.8577 47.6363 28.0146C47.8887 28.1715 48.0873 28.3945 48.2321 28.6837C48.3768 28.9729 48.4492 29.3161 48.4492 29.7131ZM48.0038 29.7131C48.0038 29.3872 47.9487 29.112 47.8386 28.8878C47.7297 28.6635 47.5819 28.4938 47.395 28.3786C47.2094 28.2634 47.0016 28.2058 46.7714 28.2058C46.5413 28.2058 46.3328 28.2634 46.146 28.3786C45.9604 28.4938 45.8126 28.6635 45.7024 28.8878C45.5936 29.112 45.5391 29.3872 45.5391 29.7131C45.5391 30.0391 45.5936 30.3142 45.7024 30.5385C45.8126 30.7628 45.9604 30.9325 46.146 31.0477C46.3328 31.1629 46.5413 31.2205 46.7714 31.2205C47.0016 31.2205 47.2094 31.1629 47.395 31.0477C47.5819 30.9325 47.7297 30.7628 47.8386 30.5385C47.9487 30.3142 48.0038 30.0391 48.0038 29.7131Z" fill="#545A69"/>
<path d="M49.1075 32.6543V28.772H49.5306V29.2205H49.5826C49.6148 29.1715 49.6593 29.109 49.7162 29.033C49.7744 28.9558 49.8573 28.8872 49.9649 28.8271C50.0738 28.7658 50.221 28.7352 50.4066 28.7352C50.6467 28.7352 50.8582 28.7946 51.0413 28.9135C51.2245 29.0324 51.3674 29.2009 51.4701 29.419C51.5728 29.6372 51.6241 29.8945 51.6241 30.1911C51.6241 30.4901 51.5728 30.7493 51.4701 30.9686C51.3674 31.1868 51.2251 31.3559 51.0432 31.476C50.8613 31.5949 50.6516 31.6543 50.414 31.6543C50.2309 31.6543 50.0843 31.6243 49.9742 31.5642C49.8641 31.503 49.7793 31.4337 49.7199 31.3565C49.6605 31.2781 49.6148 31.2131 49.5826 31.1617H49.5455V32.6543H49.1075ZM49.538 30.1837C49.538 30.397 49.5696 30.5851 49.6327 30.7481C49.6958 30.9098 49.788 31.0367 49.9092 31.1286C50.0305 31.2193 50.179 31.2646 50.3547 31.2646C50.5378 31.2646 50.6906 31.2168 50.8131 31.1212C50.9368 31.0244 51.0296 30.8945 51.0915 30.7315C51.1546 30.5673 51.1861 30.3847 51.1861 30.1837C51.1861 29.9852 51.1552 29.8063 51.0933 29.647C51.0327 29.4864 50.9405 29.3596 50.8168 29.2664C50.6943 29.1721 50.5402 29.1249 50.3547 29.1249C50.1765 29.1249 50.0268 29.1696 49.9055 29.2591C49.7843 29.3473 49.6927 29.4711 49.6308 29.6304C49.569 29.7885 49.538 29.9729 49.538 30.1837Z" fill="#545A69"/>
<path d="M53.4312 31.6543C53.1565 31.6543 52.9196 31.5943 52.7204 31.4742C52.5224 31.3528 52.3696 31.1837 52.262 30.9668C52.1556 30.7487 52.1024 30.495 52.1024 30.2058C52.1024 29.9166 52.1556 29.6617 52.262 29.4411C52.3696 29.2193 52.5193 29.0465 52.7111 28.9227C52.9041 28.7977 53.1293 28.7352 53.3866 28.7352C53.5351 28.7352 53.6817 28.7597 53.8265 28.8087C53.9713 28.8577 54.103 28.9374 54.2218 29.0477C54.3406 29.1568 54.4352 29.3014 54.5058 29.4815C54.5763 29.6617 54.6116 29.8835 54.6116 30.147V30.3308H52.4141V29.9558H54.1661C54.1661 29.7965 54.134 29.6543 54.0696 29.5293C54.0065 29.4043 53.9162 29.3057 53.7987 29.2334C53.6824 29.1611 53.545 29.1249 53.3866 29.1249C53.2122 29.1249 53.0612 29.1678 52.9338 29.2536C52.8076 29.3381 52.7105 29.4484 52.6424 29.5845C52.5744 29.7205 52.5403 29.8663 52.5403 30.022V30.272C52.5403 30.4852 52.5775 30.666 52.6517 30.8142C52.7272 30.9613 52.8317 31.0734 52.9654 31.1506C53.099 31.2266 53.2543 31.2646 53.4312 31.2646C53.5463 31.2646 53.6502 31.2487 53.743 31.2168C53.837 31.1837 53.9181 31.1347 53.9861 31.0698C54.0542 31.0036 54.1067 30.9215 54.1439 30.8234L54.567 30.9411C54.5225 31.0832 54.4476 31.2082 54.3424 31.3161C54.2373 31.4227 54.1074 31.506 53.9527 31.5661C53.798 31.6249 53.6242 31.6543 53.4312 31.6543Z" fill="#545A69"/>
<path d="M55.6596 29.897V31.5955H55.2216V28.772H55.6447V29.2131H55.6819C55.7487 29.0698 55.8501 28.9546 55.9862 28.8675C56.1223 28.7793 56.298 28.7352 56.5133 28.7352C56.7063 28.7352 56.8752 28.7744 57.02 28.8528C57.1647 28.93 57.2773 29.0477 57.3577 29.2058C57.4382 29.3626 57.4784 29.5612 57.4784 29.8014V31.5955H57.0404V29.8308C57.0404 29.609 56.9822 29.4362 56.8659 29.3124C56.7496 29.1874 56.59 29.1249 56.3871 29.1249C56.2473 29.1249 56.1223 29.1549 56.0122 29.215C55.9033 29.275 55.8173 29.3626 55.7542 29.4778C55.6911 29.593 55.6596 29.7327 55.6596 29.897Z" fill="#545A69"/>
<path d="M59.6955 31.5955V27.8308H61.0244C61.2891 27.8308 61.5075 27.8761 61.6795 27.9668C61.8515 28.0563 61.9795 28.177 62.0637 28.3289C62.1478 28.4797 62.1899 28.647 62.1899 28.8308C62.1899 28.9925 62.1608 29.1261 62.1026 29.2315C62.0457 29.3369 61.9703 29.4202 61.8762 29.4815C61.7834 29.5428 61.6826 29.5881 61.5737 29.6175V29.6543C61.69 29.6617 61.8069 29.7021 61.9245 29.7756C62.042 29.8492 62.1404 29.9546 62.2196 30.0918C62.2988 30.2291 62.3383 30.397 62.3383 30.5955C62.3383 30.7842 62.295 30.9539 62.2084 31.1047C62.1218 31.2554 61.9851 31.3749 61.7983 31.4631C61.6114 31.5514 61.3683 31.5955 61.0689 31.5955H59.6955ZM60.1558 31.1911H61.0689C61.3696 31.1911 61.583 31.1335 61.7092 31.0183C61.8366 30.9019 61.9004 30.7609 61.9004 30.5955C61.9004 30.468 61.8676 30.3504 61.802 30.2425C61.7364 30.1335 61.643 30.0465 61.5217 29.9815C61.4005 29.9153 61.257 29.8823 61.0912 29.8823H60.1558V31.1911ZM60.1558 29.4852H61.0095C61.1481 29.4852 61.2731 29.4582 61.3844 29.4043C61.497 29.3504 61.5861 29.2744 61.6517 29.1764C61.7185 29.0783 61.7519 28.9631 61.7519 28.8308C61.7519 28.6653 61.6937 28.525 61.5774 28.4098C61.4611 28.2934 61.2768 28.2352 61.0244 28.2352H60.1558V29.4852Z" fill="#545A69"/>
<path d="M63.8179 31.6617C63.6372 31.6617 63.4733 31.628 63.326 31.5606C63.1788 31.4919 63.0619 31.3933 62.9753 31.2646C62.8887 31.1347 62.8454 30.9778 62.8454 30.794C62.8454 30.6323 62.8775 30.5011 62.9419 30.4006C63.0062 30.2989 63.0922 30.2193 63.1998 30.1617C63.3075 30.1041 63.4263 30.0612 63.5562 30.033C63.6873 30.0036 63.8191 29.9803 63.9515 29.9631C64.1247 29.9411 64.2651 29.9245 64.3728 29.9135C64.4817 29.9012 64.5609 29.881 64.6103 29.8528C64.6611 29.8247 64.6864 29.7756 64.6864 29.7058V29.6911C64.6864 29.5097 64.6363 29.3688 64.5361 29.2683C64.4371 29.1678 64.2868 29.1175 64.0851 29.1175C63.876 29.1175 63.7121 29.1629 63.5933 29.2536C63.4745 29.3443 63.391 29.4411 63.3428 29.544L62.927 29.397C63.0013 29.2254 63.1002 29.0918 63.224 28.9962C63.3489 28.8994 63.485 28.832 63.6323 28.794C63.7808 28.7548 63.9268 28.7352 64.0703 28.7352C64.1618 28.7352 64.267 28.7462 64.3858 28.7683C64.5058 28.7891 64.6215 28.8326 64.7328 28.8988C64.8454 28.965 64.9388 29.0649 65.0131 29.1984C65.0873 29.332 65.1244 29.5109 65.1244 29.7352V31.5955H64.6864V31.2131H64.6642C64.6345 31.2744 64.585 31.34 64.5157 31.4098C64.4464 31.4797 64.3542 31.5391 64.2392 31.5881C64.1241 31.6372 63.9837 31.6617 63.8179 31.6617ZM63.8847 31.272C64.0579 31.272 64.2039 31.2383 64.3227 31.1709C64.4427 31.1035 64.533 31.0164 64.5936 30.9098C64.6555 30.8032 64.6864 30.6911 64.6864 30.5734V30.1764C64.6679 30.1984 64.627 30.2186 64.5639 30.237C64.5021 30.2542 64.4303 30.2695 64.3487 30.283C64.2682 30.2952 64.1897 30.3063 64.113 30.3161C64.0375 30.3247 63.9762 30.332 63.9292 30.3381C63.8154 30.3528 63.709 30.3767 63.61 30.4098C63.5123 30.4417 63.4331 30.4901 63.3724 30.555C63.3131 30.6188 63.2834 30.7058 63.2834 30.8161C63.2834 30.9668 63.3397 31.0808 63.4523 31.158C63.5661 31.234 63.7102 31.272 63.8847 31.272Z" fill="#545A69"/>
<path d="M66.3056 29.897V31.5955H65.8676V28.772H66.2908V29.2131H66.3279C66.3947 29.0698 66.4962 28.9546 66.6323 28.8675C66.7684 28.7793 66.9441 28.7352 67.1593 28.7352C67.3524 28.7352 67.5212 28.7744 67.666 28.8528C67.8108 28.93 67.9234 29.0477 68.0038 29.2058C68.0842 29.3626 68.1244 29.5612 68.1244 29.8014V31.5955H67.6864V29.8308C67.6864 29.609 67.6283 29.4362 67.512 29.3124C67.3957 29.1874 67.2361 29.1249 67.0331 29.1249C66.8933 29.1249 66.7684 29.1549 66.6582 29.215C66.5494 29.275 66.4634 29.3626 66.4003 29.4778C66.3372 29.593 66.3056 29.7327 66.3056 29.897Z" fill="#545A69"/>
<path d="M69.2768 30.5661L69.2694 30.0293H69.3585L70.6057 28.772H71.1476L69.8188 30.1028H69.7816L69.2768 30.5661ZM68.8685 31.5955V27.8308H69.3065V31.5955H68.8685ZM70.6799 31.5955L69.5664 30.1984L69.8782 29.897L71.2367 31.5955H70.6799Z" fill="#545A69"/>
<path d="M71.6551 31.5955V28.772H72.0931V31.5955H71.6551ZM71.8778 28.3014C71.7924 28.3014 71.7188 28.2726 71.6569 28.215C71.5963 28.1574 71.566 28.0881 71.566 28.0073C71.566 27.9264 71.5963 27.8571 71.6569 27.7995C71.7188 27.7419 71.7924 27.7131 71.8778 27.7131C71.9632 27.7131 72.0362 27.7419 72.0968 27.7995C72.1587 27.8571 72.1896 27.9264 72.1896 28.0073C72.1896 28.0881 72.1587 28.1574 72.0968 28.215C72.0362 28.2726 71.9632 28.3014 71.8778 28.3014Z" fill="#545A69"/>
<path d="M73.277 29.897V31.5955H72.839V28.772H73.2622V29.2131H73.2993C73.3661 29.0698 73.4676 28.9546 73.6037 28.8675C73.7398 28.7793 73.9155 28.7352 74.1308 28.7352C74.3238 28.7352 74.4927 28.7744 74.6374 28.8528C74.7822 28.93 74.8948 29.0477 74.9752 29.2058C75.0556 29.3626 75.0958 29.5612 75.0958 29.8014V31.5955H74.6578V29.8308C74.6578 29.609 74.5997 29.4362 74.4834 29.3124C74.3671 29.1874 74.2075 29.1249 74.0046 29.1249C73.8648 29.1249 73.7398 29.1549 73.6297 29.215C73.5208 29.275 73.4348 29.3626 73.3717 29.4778C73.3086 29.593 73.277 29.7327 73.277 29.897Z" fill="#545A69"/>
<path d="M76.9906 32.7131C76.7791 32.7131 76.5972 32.6862 76.445 32.6323C76.2928 32.5796 76.166 32.5097 76.0645 32.4227C75.9643 32.3369 75.8845 32.245 75.8251 32.147L76.174 31.9043C76.2136 31.9558 76.2637 32.0146 76.3244 32.0808C76.385 32.1482 76.4679 32.2064 76.573 32.2554C76.6795 32.3057 76.8186 32.3308 76.9906 32.3308C77.2208 32.3308 77.4107 32.2756 77.5604 32.1653C77.7101 32.055 77.785 31.8823 77.785 31.647V31.0734H77.7478C77.7157 31.1249 77.6699 31.1886 77.6105 31.2646C77.5524 31.3394 77.4682 31.4061 77.3581 31.465C77.2492 31.5226 77.102 31.5514 76.9164 31.5514C76.6863 31.5514 76.4796 31.4974 76.2965 31.3896C76.1146 31.2818 75.9705 31.1249 75.8641 30.919C75.7589 30.7131 75.7063 30.4631 75.7063 30.169C75.7063 29.8798 75.7577 29.628 75.8604 29.4135C75.9631 29.1978 76.106 29.0311 76.2891 28.9135C76.4722 28.7946 76.6838 28.7352 76.9238 28.7352C77.1094 28.7352 77.2566 28.7658 77.3655 28.8271C77.4756 28.8872 77.5598 28.9558 77.6179 29.033C77.6773 29.109 77.7231 29.1715 77.7553 29.2205H77.7998V28.772H78.223V31.6764C78.223 31.919 78.1673 32.1163 78.0559 32.2683C77.9458 32.4215 77.7973 32.5336 77.6105 32.6047C77.4249 32.677 77.2183 32.7131 76.9906 32.7131ZM76.9758 31.1617C77.1515 31.1617 77.2999 31.1218 77.4212 31.0422C77.5425 30.9625 77.6346 30.8479 77.6977 30.6984C77.7608 30.5489 77.7924 30.37 77.7924 30.1617C77.7924 29.9582 77.7615 29.7787 77.6996 29.6231C77.6377 29.4674 77.5462 29.3455 77.4249 29.2573C77.3037 29.169 77.1539 29.1249 76.9758 29.1249C76.7902 29.1249 76.6355 29.1715 76.5118 29.2646C76.3893 29.3577 76.2971 29.4827 76.2353 29.6396C76.1746 29.7965 76.1443 29.9705 76.1443 30.1617C76.1443 30.3577 76.1753 30.5311 76.2371 30.6819C76.3002 30.8314 76.393 30.949 76.5155 31.0348C76.6392 31.1194 76.7927 31.1617 76.9758 31.1617Z" fill="#545A69"/>
</svg>
