<svg width="611" height="900" viewBox="0 0 611 900" fill="none" xmlns="http://www.w3.org/2000/svg">
<g clipPath="url(#clip0_498_104666)">
<path d="M685 1056L685 -156L-72.9999 -156L-73 1056L685 1056Z" fill="#000034"/>
<g opacity="0.51">
<path d="M629.354 -5.55911C632.609 -8.81333 632.61 -14.087 629.354 -17.3428C626.097 -20.597 620.819 -20.597 617.562 -17.3428L559.842 40.3378C558.214 41.9649 557.4 44.0965 557.4 46.2296C557.4 48.3612 558.214 50.4944 559.842 52.1215C563.098 55.3757 568.377 55.3757 571.634 52.1215L629.354 -5.55911Z" fill="#FE8C7C"/>
</g>
<g opacity="0.96">
<path d="M629.354 98.02L571.633 40.3364C568.377 37.0822 563.098 37.0822 559.842 40.3364C558.214 41.9635 557.4 44.0951 557.4 46.2282C557.4 48.3598 558.214 50.493 559.842 52.1201L617.562 109.804C620.819 113.058 626.097 113.058 629.354 109.804C632.61 106.549 632.61 101.274 629.354 98.02Z" fill="#FD7A68"/>
</g>
<g opacity="0.34">
<path d="M629.354 155.701L571.633 98.02C568.377 94.7658 563.098 94.7658 559.842 98.02C558.214 99.6471 557.4 101.78 557.4 103.912C557.4 106.043 558.214 108.177 559.842 109.804L617.562 167.484C620.819 170.738 626.097 170.738 629.354 167.484C632.61 164.23 632.61 158.953 629.354 155.701Z" fill="#F6E3F8"/>
</g>
<g opacity="0.67">
<path d="M629.354 167.484C632.609 164.23 632.609 158.955 629.354 155.701C626.097 152.446 620.819 152.446 617.562 155.701L559.842 213.383C558.214 215.01 557.4 217.141 557.4 219.275C557.4 221.408 558.214 223.539 559.842 225.166C563.099 228.421 568.377 228.421 571.634 225.166L629.354 167.484Z" fill="#FE8473"/>
</g>
<g opacity="0.37">
<path d="M629.354 225.166C632.61 221.912 632.61 216.637 629.354 213.383C626.097 210.128 620.819 210.128 617.562 213.383L559.842 271.065C558.214 272.692 557.4 274.825 557.4 276.957C557.4 279.088 558.214 281.221 559.842 282.848C563.098 286.103 568.377 286.103 571.633 282.848L629.354 225.166Z" fill="#FEC8C1"/>
</g>
<g opacity="0.99">
<path d="M629.354 328.744L571.633 271.065C568.377 267.811 563.098 267.811 559.842 271.065C558.214 272.692 557.4 274.825 557.4 276.957C557.4 279.09 558.214 281.221 559.842 282.848L617.562 340.529C620.819 343.783 626.097 343.783 629.354 340.529C632.61 337.273 632.61 331.998 629.354 328.744Z" fill="#E6EBEC"/>
</g>
<g opacity="0.53">
<path d="M629.354 386.428L571.633 328.744C568.377 325.49 563.098 325.49 559.842 328.744C558.214 330.371 557.4 332.503 557.4 334.636C557.4 336.769 558.214 338.901 559.842 340.528L617.562 398.21C620.819 401.464 626.097 401.464 629.354 398.21C632.61 394.956 632.61 389.682 629.354 386.428Z" fill="#FEA093"/>
</g>
<g opacity="0.7">
<path d="M629.354 398.211C632.609 394.957 632.61 389.683 629.354 386.428C626.097 383.173 620.819 383.173 617.562 386.428L559.842 444.108C558.214 445.735 557.4 447.867 557.4 450C557.4 452.133 558.214 454.265 559.842 455.892C563.098 459.145 568.377 459.145 571.634 455.892L629.354 398.211Z" fill="#B2C2C5"/>
</g>
<g opacity="0.33">
<path d="M629.354 455.892C632.609 452.638 632.609 447.362 629.354 444.108C626.097 440.854 620.819 440.854 617.562 444.108L559.842 501.792C558.214 503.417 557.4 505.552 557.4 507.684C557.4 509.815 558.214 511.948 559.842 513.575C563.099 516.83 568.377 516.83 571.634 513.575L629.354 455.892Z" fill="#F3D8F6"/>
</g>
<g opacity="0.43">
<path d="M629.354 513.575C632.607 510.321 632.612 505.045 629.354 501.792C626.097 498.538 620.819 498.538 617.562 501.79L559.842 559.469C558.214 561.096 557.4 563.23 557.4 565.363C557.4 567.494 558.214 569.627 559.842 571.255C563.098 574.509 568.377 574.509 571.634 571.256L629.354 513.575Z" fill="#C1CED0"/>
</g>
<g opacity="0.45">
<path d="M629.354 571.253C632.609 568.002 632.609 562.722 629.354 559.471C626.097 556.217 620.819 556.217 617.562 559.471L559.842 617.154C558.214 618.78 557.4 620.915 557.4 623.046C557.4 625.178 558.214 627.311 559.842 628.938C563.099 632.192 568.377 632.192 571.634 628.938L629.354 571.253Z" fill="#F1D2F4"/>
</g>
<g opacity="0.72">
<path d="M629.354 674.832L571.633 617.153C568.377 613.9 563.098 613.9 559.842 617.154C558.214 618.78 557.4 620.915 557.4 623.046C557.4 625.178 558.214 627.311 559.842 628.94L617.562 686.619C620.819 689.873 626.097 689.873 629.354 686.617C632.61 683.364 632.61 678.088 629.354 674.832Z" fill="#FE998C"/>
</g>
<g opacity="0.58">
<path d="M629.354 732.517L571.633 674.833C568.377 671.579 563.098 671.579 559.842 674.833C558.214 676.459 557.4 678.591 557.4 680.725C557.4 682.857 558.214 684.99 559.842 686.617L617.562 744.301C620.819 747.555 626.097 747.555 629.354 744.301C632.608 741.05 632.612 735.771 629.354 732.517Z" fill="#FEA093"/>
</g>
<g opacity="0.49">
<path d="M629.354 790.195L571.634 732.516C568.377 729.261 563.099 729.261 559.842 732.517C558.214 734.143 557.4 736.276 557.4 738.409C557.4 740.541 558.214 742.674 559.842 744.302L617.562 801.98C620.819 805.233 626.097 805.233 629.354 801.978C632.612 798.727 632.61 793.449 629.354 790.195Z" fill="#F1D2F4"/>
</g>
<g opacity="0.76">
<path d="M629.354 847.88L571.633 790.196C568.377 786.942 563.098 786.942 559.842 790.196C558.214 791.822 557.4 793.953 557.4 796.088C557.4 798.22 558.214 800.353 559.842 801.98L617.562 859.664C620.819 862.918 626.097 862.918 629.354 859.664C632.608 856.412 632.612 851.133 629.354 847.88Z" fill="#F9EDFB"/>
</g>
<g opacity="0.54">
<path d="M629.354 905.556L571.633 847.878C568.377 844.624 563.098 844.624 559.842 847.88C558.214 849.505 557.4 851.639 557.4 853.772C557.4 855.903 558.214 858.036 559.842 859.665L617.562 917.343C620.818 920.595 626.097 920.595 629.354 917.341C632.611 914.088 632.61 908.812 629.354 905.556Z" fill="#FE9D8F"/>
</g>
<g opacity="0.78">
<path d="M571.633 40.3363L513.915 -17.3442C510.658 -20.5985 505.38 -20.5985 502.123 -17.3443C500.495 -15.7171 499.681 -13.5855 499.681 -11.4524C499.681 -9.3193 500.495 -7.18769 502.123 -5.56058L559.842 52.12C563.098 55.3742 568.377 55.3742 571.633 52.12C574.89 48.8658 574.89 43.5921 571.633 40.3363Z" fill="#FFDED9"/>
</g>
<g opacity="0.34">
<path d="M571.634 52.1201C574.888 48.8659 574.888 43.5891 571.634 40.3364C568.377 37.0822 563.098 37.0822 559.842 40.3364L502.123 98.02C500.495 99.6471 499.681 101.78 499.681 103.912C499.681 106.043 500.495 108.177 502.123 109.804C505.38 113.058 510.659 113.058 513.915 109.804L571.634 52.1201Z" fill="#FFDFDB"/>
</g>
<g opacity="0.31">
<path d="M571.633 155.701L513.915 98.02C510.658 94.7658 505.38 94.7658 502.123 98.02C500.495 99.6471 499.681 101.78 499.681 103.912C499.681 106.043 500.495 108.177 502.123 109.804L559.842 167.484C563.098 170.738 568.377 170.738 571.633 167.484C574.89 164.23 574.89 158.955 571.633 155.701Z" fill="#C3D0D2"/>
</g>
<g opacity="0.86">
<path d="M571.634 167.484C574.888 164.23 574.888 158.953 571.634 155.701C568.377 152.446 563.098 152.446 559.842 155.701L502.123 213.383C500.495 215.01 499.681 217.141 499.681 219.275C499.681 221.408 500.495 223.539 502.123 225.166C505.38 228.421 510.659 228.421 513.915 225.166L571.634 167.484Z" fill="#FE998C"/>
</g>
<g opacity="0.48">
<path d="M571.634 271.065L513.915 213.383C510.659 210.128 505.38 210.128 502.123 213.383C500.495 215.01 499.681 217.141 499.681 219.275C499.681 221.406 500.495 223.539 502.123 225.166L559.842 282.848C563.098 286.103 568.377 286.103 571.634 282.848C574.891 279.594 574.89 274.317 571.634 271.065Z" fill="#B2C2C5"/>
</g>
<g opacity="0.46">
<path d="M571.633 282.849C574.89 279.594 574.888 274.318 571.633 271.065C568.377 267.811 563.098 267.811 559.842 271.065L502.123 328.745C500.495 330.373 499.681 332.504 499.681 334.637C499.681 336.769 500.495 338.904 502.123 340.529C505.38 343.783 510.658 343.783 513.915 340.529L571.633 282.849Z" fill="#A3B7BA"/>
</g>
<g opacity="0.57">
<path d="M571.633 386.428L513.915 328.745C510.658 325.491 505.38 325.491 502.123 328.745C500.495 330.373 499.681 332.504 499.681 334.637C499.681 336.769 500.495 338.904 502.123 340.529L559.842 398.211C563.098 401.466 568.377 401.466 571.633 398.211C574.89 394.957 574.89 389.68 571.633 386.428Z" fill="#FD7D6B"/>
</g>
<g opacity="0.9">
<path d="M571.633 398.211C574.89 394.957 574.888 389.682 571.633 386.428C568.377 383.173 563.098 383.173 559.842 386.428L502.123 444.108C500.495 445.735 499.681 447.867 499.681 450C499.681 452.133 500.495 454.265 502.123 455.892C505.38 459.145 510.658 459.145 513.915 455.892L571.633 398.211Z" fill="#FE9D8F"/>
</g>
<g opacity="0.88">
<path d="M571.634 455.892C574.888 452.638 574.888 447.361 571.634 444.108C568.377 440.854 563.098 440.854 559.842 444.108L502.123 501.792C500.495 503.417 499.681 505.552 499.681 507.684C499.681 509.815 500.495 511.948 502.123 513.577C505.38 516.83 510.659 516.83 513.915 513.575L571.634 455.892Z" fill="#EECBF3"/>
</g>
<g opacity="0.41">
<path d="M571.634 513.574C574.887 510.323 574.89 505.044 571.634 501.792C568.377 498.538 563.098 498.538 559.842 501.792L502.123 559.471C500.495 561.096 499.681 563.228 499.681 565.363C499.681 567.494 500.495 569.627 502.123 571.254C505.38 574.509 510.659 574.509 513.915 571.254L571.634 513.574Z" fill="#F3DAF6"/>
</g>
<g opacity="0.97">
<path d="M571.633 617.155L513.915 559.471C510.658 556.217 505.38 556.217 502.123 559.469C500.495 561.096 499.681 563.23 499.681 565.363C499.681 567.494 500.495 569.627 502.123 571.255L559.842 628.938C563.098 632.192 568.377 632.192 571.633 628.94C574.888 625.685 574.891 620.407 571.633 617.155Z" fill="#8DA5A9"/>
</g>
<g opacity="0.81">
<path d="M571.634 628.937C574.887 625.685 574.89 620.407 571.634 617.155C568.377 613.9 563.098 613.9 559.842 617.155L502.123 674.834C500.495 676.459 499.681 678.591 499.681 680.725C499.681 682.857 500.495 684.99 502.123 686.617C505.38 689.873 510.659 689.873 513.915 686.617L571.634 628.937Z" fill="#FE8777"/>
</g>
<g opacity="0.67">
<path d="M571.633 732.517L513.915 674.834C510.658 671.579 505.38 671.579 502.123 674.832C500.495 676.459 499.681 678.591 499.681 680.725C499.681 682.857 500.495 684.99 502.123 686.617L559.842 744.301C563.098 747.555 568.377 747.555 571.633 744.302C574.888 741.048 574.891 735.771 571.633 732.517Z" fill="#9CB1B5"/>
</g>
<g opacity="0.46">
<path d="M571.634 744.302C574.887 741.048 574.89 735.771 571.634 732.519C568.377 729.265 563.098 729.264 559.842 732.517L502.123 790.195C500.495 791.822 499.681 793.953 499.681 796.088C499.681 798.22 500.495 800.353 502.123 801.98C505.38 805.234 510.659 805.234 513.915 801.981L571.634 744.302Z" fill="#FEB1A6"/>
</g>
<g opacity="0.44">
<path d="M571.634 801.978C574.888 798.726 574.888 793.449 571.634 790.195C568.377 786.941 563.098 786.941 559.842 790.196L502.123 847.88C500.495 849.505 499.681 851.639 499.681 853.772C499.681 855.903 500.495 858.036 502.123 859.665C505.38 862.918 510.659 862.918 513.915 859.664L571.634 801.978Z" fill="#E9BAEF"/>
</g>
<g opacity="0.56">
<path d="M571.633 905.556L513.915 847.878C510.658 844.624 505.38 844.624 502.123 847.88C500.495 849.505 499.681 851.639 499.681 853.772C499.681 855.903 500.495 858.036 502.123 859.665L559.842 917.343C563.098 920.595 568.377 920.595 571.633 917.341C574.89 914.088 574.89 908.812 571.633 905.556Z" fill="#C3D0D2"/>
</g>
<g opacity="0.6">
<path d="M513.915 -5.55911C517.17 -8.81333 517.17 -14.0886 513.915 -17.3428C510.658 -20.597 505.38 -20.597 502.123 -17.3428L444.405 40.3378C442.777 41.9649 441.962 44.0965 441.962 46.2296C441.962 48.3628 442.777 50.4944 444.405 52.1215C447.661 55.3757 452.94 55.3757 456.196 52.1215L513.915 -5.55911Z" fill="#FE8777"/>
</g>
<g opacity="0.7">
<path d="M513.915 52.1201C517.17 48.8659 517.17 43.5891 513.915 40.3364C510.658 37.0822 505.38 37.0822 502.123 40.3364L444.405 98.02C442.777 99.6471 441.962 101.78 441.962 103.912C441.962 106.043 442.777 108.177 444.405 109.804C447.661 113.058 452.94 113.058 456.196 109.804L513.915 52.1201Z" fill="#749197"/>
</g>
<g opacity="0.98">
<path d="M513.915 155.701L456.196 98.02C452.94 94.7658 447.661 94.7658 444.405 98.02C442.777 99.6471 441.962 101.78 441.962 103.912C441.962 106.043 442.777 108.177 444.405 109.804L502.123 167.484C505.38 170.738 510.658 170.738 513.915 167.484C517.17 164.23 517.17 158.955 513.915 155.701Z" fill="#FEBCB3"/>
</g>
<g opacity="0.32">
<path d="M513.915 213.383L456.196 155.701C452.94 152.446 447.661 152.446 444.405 155.701C442.777 157.328 441.963 159.459 441.963 161.593C441.963 163.724 442.777 165.859 444.405 167.484L502.124 225.166C505.38 228.421 510.659 228.421 513.915 225.166C517.17 221.912 517.171 216.637 513.915 213.383Z" fill="#FEC1B9"/>
</g>
<g opacity="0.4">
<path d="M513.915 271.065L456.196 213.383C452.94 210.128 447.661 210.128 444.405 213.383C442.776 215.01 441.962 217.141 441.962 219.275C441.962 221.406 442.776 223.539 444.405 225.166L502.123 282.848C505.38 286.103 510.658 286.103 513.915 282.848C517.17 279.594 517.171 274.317 513.915 271.065Z" fill="#EBBFF0"/>
</g>
<g opacity="0.9">
<path d="M513.915 282.849C517.17 279.594 517.17 274.319 513.915 271.065C510.658 267.811 505.38 267.811 502.123 271.065L444.405 328.745C442.777 330.373 441.962 332.504 441.962 334.637C441.962 336.77 442.777 338.902 444.405 340.529C447.661 343.783 452.94 343.783 456.196 340.529L513.915 282.849Z" fill="#FEA599"/>
</g>
<g opacity="0.82">
<path d="M513.915 340.529C517.17 337.275 517.17 331.998 513.915 328.745C510.658 325.491 505.38 325.491 502.123 328.745L444.405 386.428C442.777 388.055 441.962 390.186 441.962 392.319C441.962 394.453 442.777 396.584 444.405 398.211C447.661 401.466 452.94 401.466 456.196 398.211L513.915 340.529Z" fill="#E6B0ED"/>
</g>
<g opacity="0.95">
<path d="M513.915 444.107L456.196 386.426C452.94 383.172 447.661 383.172 444.405 386.426C442.777 388.053 441.962 390.185 441.962 392.318C441.962 394.451 442.777 396.583 444.405 398.21L502.123 455.89C505.38 459.143 510.658 459.143 513.915 455.89C517.17 452.636 517.17 447.362 513.915 444.107Z" fill="#FE8979"/>
</g>
<g opacity="0.45">
<path d="M513.915 501.79L456.196 444.107C452.94 440.852 447.661 440.852 444.405 444.107C442.776 445.734 441.962 447.865 441.962 449.998C441.962 452.132 442.776 454.263 444.405 455.89L502.123 513.572C505.38 516.827 510.658 516.827 513.915 513.574C517.17 510.321 517.171 505.044 513.915 501.79Z" fill="#FD7562"/>
</g>
<g opacity="0.59">
<path d="M513.915 513.574C517.17 510.323 517.171 505.044 513.915 501.792C510.658 498.538 505.38 498.538 502.123 501.792L444.405 559.471C442.776 561.096 441.962 563.228 441.962 565.363C441.962 567.494 442.776 569.627 444.405 571.254C447.661 574.509 452.94 574.509 456.196 571.254L513.915 513.574Z" fill="#ECC3F1"/>
</g>
<g opacity="0.66">
<path d="M513.915 571.253C517.17 568.002 517.17 562.724 513.915 559.469C510.658 556.217 505.38 556.217 502.123 559.471L444.405 617.155C442.777 618.78 441.962 620.915 441.962 623.046C441.962 625.178 442.777 627.311 444.405 628.94C447.661 632.194 452.94 632.194 456.196 628.938L513.915 571.253Z" fill="#FE9688"/>
</g>
<g opacity="0.43">
<path d="M513.915 674.834L456.196 617.155C452.94 613.9 447.661 613.9 444.405 617.155C442.777 618.78 441.962 620.915 441.962 623.046C441.962 625.178 442.777 627.311 444.405 628.938L502.123 686.617C505.38 689.873 510.658 689.873 513.915 686.617C517.17 683.365 517.17 678.086 513.915 674.834Z" fill="#FE988A"/>
</g>
<g opacity="0.86">
<path d="M513.915 686.617C517.17 683.366 517.17 678.088 513.915 674.834C510.658 671.579 505.38 671.579 502.123 674.835L444.405 732.519C442.777 734.144 441.962 736.277 441.962 738.41C441.962 740.542 442.777 742.675 444.405 744.304C447.661 747.558 452.94 747.558 456.196 744.302L513.915 686.617Z" fill="#567A80"/>
</g>
<g opacity="0.44">
<path d="M513.915 790.195L456.196 732.517C452.94 729.263 447.661 729.263 444.405 732.519C442.777 734.144 441.962 736.277 441.962 738.41C441.962 740.542 442.777 742.675 444.405 744.302L502.123 801.98C505.38 805.234 510.658 805.234 513.915 801.98C517.17 798.727 517.17 793.449 513.915 790.195Z" fill="#E6B2ED"/>
</g>
<g opacity="0.7">
<path d="M513.915 847.88L456.196 790.196C452.94 786.942 447.661 786.942 444.405 790.195C442.776 791.822 441.962 793.953 441.962 796.088C441.962 798.22 442.776 800.353 444.405 801.98L502.123 859.664C505.38 862.918 510.658 862.918 513.915 859.665C517.17 856.411 517.171 851.133 513.915 847.88Z" fill="#FEC0B7"/>
</g>
<g opacity="0.37">
<path d="M513.915 859.662C517.168 856.411 517.171 851.133 513.915 847.88C510.658 844.624 505.38 844.624 502.123 847.878L444.405 905.556C442.777 907.183 441.962 909.315 441.962 911.449C441.962 913.581 442.777 915.714 444.405 917.341C447.661 920.595 452.94 920.595 456.196 917.341L513.915 859.662Z" fill="#9CB1B5"/>
</g>
<g opacity="0.59">
<path d="M456.196 -5.55911C459.451 -8.81333 459.451 -14.087 456.196 -17.3428C452.94 -20.597 447.661 -20.597 444.405 -17.3428L386.685 40.3378C385.056 41.9649 384.242 44.0965 384.242 46.2296C384.242 48.3612 385.056 50.4944 386.685 52.1215C389.941 55.3757 395.22 55.3757 398.476 52.1215L456.196 -5.55911Z" fill="#B7C6C9"/>
</g>
<g opacity="0.46">
<path d="M456.196 52.1201C459.451 48.8659 459.451 43.5906 456.196 40.3364C452.94 37.0822 447.661 37.0822 444.405 40.3364L386.685 98.02C385.056 99.6471 384.242 101.78 384.242 103.912C384.242 106.043 385.056 108.177 386.685 109.804C389.941 113.058 395.22 113.058 398.476 109.804L456.196 52.1201Z" fill="#AABCC0"/>
</g>
<g opacity="0.87">
<path d="M456.196 155.701L398.476 98.02C395.22 94.7658 389.941 94.7658 386.685 98.02C385.056 99.6471 384.242 101.78 384.242 103.912C384.242 106.043 385.056 108.177 386.685 109.804L444.405 167.484C447.661 170.738 452.94 170.738 456.196 167.484C459.453 164.23 459.453 158.953 456.196 155.701Z" fill="#718F95"/>
</g>
<g opacity="0.86">
<path d="M456.196 167.484C459.451 164.23 459.451 158.955 456.196 155.701C452.94 152.446 447.661 152.446 444.405 155.701L386.685 213.383C385.056 215.01 384.242 217.141 384.242 219.275C384.242 221.408 385.056 223.539 386.685 225.166C389.941 228.421 395.22 228.421 398.476 225.166L456.196 167.484Z" fill="#FD6E5A"/>
</g>
<g opacity="0.97">
<path d="M456.196 225.166C459.453 221.912 459.451 216.637 456.196 213.383C452.94 210.128 447.661 210.128 444.405 213.383L386.685 271.065C385.056 272.692 384.242 274.825 384.242 276.957C384.242 279.088 385.056 281.221 386.685 282.848C389.941 286.103 395.22 286.103 398.476 282.848L456.196 225.166Z" fill="#8FA7AB"/>
</g>
<g opacity="0.96">
<path d="M456.196 282.849C459.451 279.594 459.451 274.319 456.196 271.065C452.94 267.811 447.661 267.811 444.405 271.065L386.684 328.745C385.056 330.373 384.242 332.504 384.242 334.637C384.242 336.769 385.056 338.902 386.684 340.529C389.941 343.783 395.22 343.783 398.476 340.529L456.196 282.849Z" fill="#FEAFA4"/>
</g>
<g opacity="0.34">
<path d="M456.196 386.428L398.476 328.744C395.22 325.49 389.941 325.49 386.685 328.744C385.056 330.371 384.242 332.503 384.242 334.636C384.242 336.769 385.056 338.901 386.685 340.528L444.405 398.21C447.661 401.464 452.94 401.464 456.196 398.21C459.453 394.956 459.453 389.682 456.196 386.428Z" fill="#FD7F6D"/>
</g>
<g opacity="0.87">
<path d="M456.196 444.107L398.476 386.428C395.22 383.173 389.941 383.173 386.685 386.428C385.056 388.055 384.242 390.186 384.242 392.319C384.242 394.453 385.056 396.584 386.685 398.211L444.405 455.892C447.661 459.145 452.94 459.145 456.196 455.892C459.453 452.636 459.453 447.361 456.196 444.107Z" fill="#FD644F"/>
</g>
<g opacity="0.99">
<path d="M456.196 501.79L398.476 444.107C395.22 440.852 389.941 440.852 386.684 444.107C385.056 445.734 384.242 447.865 384.242 449.998C384.242 452.132 385.056 454.263 386.684 455.89L444.405 513.572C447.661 516.827 452.94 516.827 456.196 513.572C459.452 510.323 459.454 505.044 456.196 501.79Z" fill="#FEBEB5"/>
</g>
<g opacity="0.5">
<path d="M456.196 513.575C459.449 510.321 459.452 505.045 456.196 501.792C452.94 498.538 447.661 498.538 444.405 501.79L386.684 559.469C385.056 561.096 384.242 563.23 384.242 565.363C384.242 567.494 385.056 569.627 386.684 571.255C389.941 574.509 395.22 574.509 398.476 571.256L456.196 513.575Z" fill="#8FA7AB"/>
</g>
<g opacity="0.72">
<path d="M456.196 617.154L398.476 559.471C395.22 556.217 389.941 556.217 386.685 559.471C385.056 561.096 384.242 563.228 384.242 565.363C384.242 567.494 385.056 569.627 386.685 571.255L444.405 628.938C447.661 632.192 452.94 632.192 456.196 628.938C459.451 625.687 459.454 620.407 456.196 617.154Z" fill="#5B7E84"/>
</g>
<g opacity="0.91">
<path d="M456.196 628.938C459.449 625.685 459.452 620.407 456.196 617.154C452.94 613.9 447.661 613.9 444.405 617.153L386.684 674.832C385.056 676.459 384.242 678.591 384.242 680.725C384.242 682.857 385.056 684.99 386.684 686.617C389.941 689.873 395.22 689.873 398.476 686.619L456.196 628.938Z" fill="#BECCCF"/>
</g>
<g opacity="0.87">
<path d="M456.196 732.517L398.476 674.833C395.22 671.579 389.941 671.579 386.685 674.833C385.056 676.459 384.242 678.591 384.242 680.725C384.242 682.857 385.056 684.99 386.685 686.617L444.405 744.301C447.661 747.555 452.94 747.555 456.196 744.301C459.451 741.05 459.454 735.771 456.196 732.517Z" fill="#FEAFA4"/>
</g>
<g opacity="0.85">
<path d="M456.196 744.302C459.449 741.048 459.452 735.771 456.196 732.519C452.94 729.265 447.661 729.264 444.405 732.517L386.684 790.195C385.056 791.822 384.242 793.953 384.242 796.088C384.242 798.22 385.056 800.353 386.684 801.98C389.941 805.234 395.22 805.234 398.476 801.981L456.196 744.302Z" fill="#FE9486"/>
</g>
<g opacity="0.81">
<path d="M456.196 801.978C459.451 798.726 459.451 793.447 456.196 790.196C452.94 786.942 447.661 786.942 444.405 790.196L386.684 847.88C385.056 849.506 384.242 851.639 384.242 853.772C384.242 855.903 385.056 858.037 386.684 859.664C389.941 862.918 395.22 862.918 398.476 859.664L456.196 801.978Z" fill="#FE8777"/>
</g>
<g opacity="0.76">
<path d="M456.196 859.664C459.449 856.411 459.452 851.133 456.196 847.88C452.94 844.624 447.661 844.624 444.405 847.878L386.684 905.556C385.056 907.183 384.242 909.315 384.242 911.449C384.242 913.581 385.056 915.714 386.684 917.341C389.941 920.595 395.22 920.595 398.476 917.343L456.196 859.664Z" fill="#97ADB1"/>
</g>
<g opacity="0.32">
<path d="M398.476 -5.55911C401.731 -8.81333 401.732 -14.087 398.476 -17.3428C395.22 -20.597 389.941 -20.597 386.685 -17.3428L328.963 40.3378C327.335 41.9649 326.521 44.0965 326.521 46.2296C326.521 48.3612 327.335 50.4944 328.963 52.1215C332.219 55.3757 337.498 55.3757 340.754 52.1215L398.476 -5.55911Z" fill="#FE998C"/>
</g>
<g opacity="0.61">
<path d="M398.476 52.1201C401.732 48.8659 401.732 43.5906 398.476 40.3364C395.22 37.0822 389.941 37.0822 386.684 40.3364L328.963 98.02C327.335 99.6471 326.521 101.78 326.521 103.912C326.521 106.043 327.335 108.177 328.963 109.804C332.219 113.058 337.498 113.058 340.754 109.804L398.476 52.1201Z" fill="#7B979C"/>
</g>
<g opacity="0.82">
<path d="M398.476 155.701L340.754 98.02C337.498 94.7658 332.219 94.7658 328.963 98.02C327.335 99.6471 326.521 101.78 326.521 103.912C326.521 106.043 327.335 108.177 328.963 109.804L386.684 167.484C389.941 170.738 395.22 170.738 398.476 167.484C401.732 164.23 401.732 158.953 398.476 155.701Z" fill="#ECC3F1"/>
</g>
<g opacity="0.73">
<path d="M398.476 167.484C401.732 164.23 401.732 158.953 398.476 155.701C395.22 152.446 389.941 152.446 386.684 155.701L328.963 213.383C327.335 215.01 326.521 217.141 326.521 219.275C326.521 221.406 327.335 223.539 328.963 225.166C332.219 228.421 337.498 228.421 340.754 225.166L398.476 167.484Z" fill="#FEAFA4"/>
</g>
<g opacity="0.49">
<path d="M398.476 271.065L340.754 213.383C337.498 210.128 332.219 210.128 328.963 213.383C327.335 215.01 326.521 217.141 326.521 219.275C326.521 221.408 327.335 223.539 328.963 225.166L386.684 282.848C389.941 286.103 395.22 286.103 398.476 282.848C401.732 279.594 401.732 274.317 398.476 271.065Z" fill="#6C8B91"/>
</g>
<g opacity="0.68">
<path d="M398.476 328.744L340.754 271.063C337.498 267.809 332.219 267.809 328.963 271.063C327.335 272.69 326.521 274.824 326.521 276.955C326.521 279.088 327.335 281.22 328.963 282.847L386.684 340.528C389.941 343.782 395.22 343.782 398.476 340.528C401.732 337.273 401.732 331.998 398.476 328.744Z" fill="#EBBFF0"/>
</g>
<g opacity="0.45">
<path d="M398.476 340.529C401.732 337.275 401.732 332 398.476 328.745C395.22 325.491 389.941 325.491 386.684 328.745L328.963 386.428C327.335 388.055 326.521 390.186 326.521 392.319C326.521 394.451 327.335 396.584 328.963 398.211C332.219 401.466 337.498 401.466 340.754 398.211L398.476 340.529Z" fill="#FEA599"/>
</g>
<g opacity="0.94">
<path d="M398.476 398.211C401.731 394.957 401.732 389.683 398.476 386.428C395.22 383.173 389.941 383.173 386.685 386.428L328.963 444.108C327.335 445.735 326.521 447.867 326.521 450C326.521 452.133 327.335 454.265 328.963 455.892C332.219 459.145 337.498 459.145 340.754 455.892L398.476 398.211Z" fill="#F2D7F6"/>
</g>
<g opacity="0.43">
<path d="M398.476 455.892C401.732 452.638 401.732 447.362 398.476 444.108C395.22 440.854 389.941 440.854 386.684 444.108L328.963 501.792C327.335 503.417 326.521 505.552 326.521 507.684C326.521 509.815 327.335 511.948 328.963 513.575C332.219 516.83 337.498 516.83 340.754 513.575L398.476 455.892Z" fill="#67888D"/>
</g>
<g opacity="0.92">
<path d="M398.476 559.469L340.754 501.79C337.498 498.536 332.219 498.536 328.963 501.792C327.335 503.417 326.521 505.552 326.521 507.684C326.521 509.815 327.335 511.948 328.963 513.577L386.684 571.256C389.941 574.509 395.22 574.509 398.476 571.254C401.732 568.002 401.732 562.723 398.476 559.469Z" fill="#9CB1B5"/>
</g>
<g opacity="0.47">
<path d="M398.476 617.154L340.754 559.471C337.498 556.217 332.219 556.217 328.963 559.471C327.335 561.096 326.521 563.228 326.521 565.363C326.521 567.494 327.335 569.627 328.963 571.255L386.684 628.938C389.941 632.192 395.22 632.192 398.476 628.938C401.732 625.687 401.732 620.407 398.476 617.154Z" fill="#94ABAF"/>
</g>
<g opacity="0.37">
<path d="M398.476 628.938C401.729 625.685 401.732 620.407 398.476 617.154C395.22 613.9 389.941 613.9 386.685 617.153L328.963 674.832C327.335 676.459 326.521 678.591 326.521 680.725C326.521 682.857 327.335 684.99 328.963 686.617C332.219 689.873 337.498 689.873 340.754 686.619L398.476 628.938Z" fill="#FE8575"/>
</g>
<g opacity="0.82">
<path d="M398.476 686.617C401.732 683.366 401.732 678.086 398.476 674.835C395.22 671.581 389.941 671.581 386.684 674.835L328.963 732.519C327.335 734.144 326.521 736.277 326.521 738.411C326.521 740.542 327.335 742.675 328.963 744.302C332.219 747.557 337.498 747.557 340.754 744.302L398.476 686.617Z" fill="#4C7279"/>
</g>
<g opacity="0.48">
<path d="M398.474 790.195L340.753 732.517C337.496 729.263 332.218 729.263 328.961 732.519C327.333 734.146 326.519 736.277 326.519 738.41C326.519 740.542 327.333 742.675 328.961 744.304L386.683 801.981C389.939 805.234 395.218 805.234 398.474 801.98C401.732 798.724 401.732 793.449 398.474 790.195Z" fill="#FEB2A8"/>
</g>
<g opacity="0.99">
<path d="M398.476 801.978C401.732 798.726 401.732 793.447 398.476 790.196C395.22 786.942 389.941 786.942 386.684 790.196L328.963 847.88C327.335 849.506 326.521 851.639 326.521 853.772C326.521 855.903 327.335 858.037 328.963 859.664C332.219 862.918 337.498 862.918 340.754 859.664L398.476 801.978Z" fill="#FE9384"/>
</g>
<g opacity="0.75">
<path d="M398.474 859.664C401.731 856.411 401.732 851.133 398.476 847.88C395.22 844.624 389.941 844.624 386.685 847.878L328.963 905.556C327.335 907.183 326.521 909.315 326.521 911.449C326.521 913.581 327.335 915.714 328.963 917.341C332.218 920.595 337.498 920.595 340.754 917.343L398.474 859.664Z" fill="#FE8C7C"/>
</g>
<g opacity="0.63">
<path d="M340.754 40.3363L283.036 -17.3442C279.781 -20.5985 274.501 -20.5985 271.246 -17.3443C269.617 -15.7171 268.803 -13.5855 268.803 -11.4524C268.803 -9.32081 269.617 -7.18769 271.246 -5.56058L328.963 52.12C332.219 55.3742 337.498 55.3742 340.754 52.12C344.011 48.8658 344.011 43.5906 340.754 40.3363Z" fill="#F9EDFB"/>
</g>
<g opacity="0.57">
<path d="M340.754 52.1201C344.011 48.8659 344.011 43.5891 340.754 40.3364C337.498 37.0822 332.219 37.0822 328.963 40.3364L271.244 98.02C269.617 99.6471 268.803 101.78 268.803 103.912C268.803 106.043 269.617 108.177 271.246 109.804C274.501 113.058 279.781 113.058 283.037 109.804L340.754 52.1201Z" fill="#88A1A6"/>
</g>
<g opacity="0.79">
<path d="M340.754 109.804C344.011 106.549 344.011 101.274 340.754 98.02C337.498 94.7658 332.219 94.7658 328.963 98.02L271.246 155.701C269.617 157.328 268.803 159.459 268.803 161.592C268.803 163.726 269.617 165.857 271.246 167.484C274.501 170.738 279.781 170.738 283.036 167.484L340.754 109.804Z" fill="#8FA7AB"/>
</g>
<g opacity="0.57">
<path d="M340.754 167.484C344.011 164.23 344.011 158.953 340.754 155.701C337.498 152.446 332.219 152.446 328.963 155.701L271.244 213.383C269.617 215.01 268.803 217.141 268.803 219.275C268.803 221.408 269.617 223.539 271.246 225.166C274.501 228.421 279.781 228.421 283.037 225.166L340.754 167.484Z" fill="#F7E6F9"/>
</g>
<g opacity="0.55">
<path d="M340.754 271.065L283.037 213.383C279.781 210.128 274.501 210.128 271.246 213.383C269.618 215.01 268.803 217.141 268.803 219.275C268.803 221.406 269.618 223.539 271.246 225.166L328.963 282.848C332.219 286.103 337.498 286.103 340.754 282.848C344.009 279.594 344.011 274.317 340.754 271.065Z" fill="#FEA89D"/>
</g>
<g opacity="0.35">
<path d="M340.754 328.744L283.036 271.063C279.781 267.809 274.501 267.809 271.246 271.063C269.617 272.69 268.803 274.824 268.803 276.955C268.803 279.087 269.617 281.22 271.246 282.847L328.963 340.528C332.219 343.782 337.498 343.782 340.754 340.528C344.011 337.275 344.011 331.998 340.754 328.744Z" fill="#F1D3F5"/>
</g>
<g opacity="0.7">
<path d="M340.754 386.428L283.037 328.745C279.781 325.491 274.501 325.491 271.246 328.745C269.618 330.373 268.803 332.504 268.803 334.637C268.803 336.769 269.618 338.902 271.244 340.529L328.963 398.211C332.219 401.466 337.498 401.466 340.754 398.211C344.009 394.957 344.011 389.682 340.754 386.428Z" fill="#97ADB1"/>
</g>
<g opacity="0.67">
<path d="M340.754 444.107L283.036 386.426C279.781 383.172 274.501 383.172 271.246 386.426C269.617 388.053 268.803 390.185 268.803 392.318C268.803 394.449 269.617 396.583 271.246 398.21L328.963 455.89C332.219 459.143 337.498 459.143 340.754 455.89C344.011 452.638 344.011 447.361 340.754 444.107Z" fill="#3B646C"/>
</g>
<g opacity="0.59">
<path d="M340.754 455.892C344.011 452.638 344.011 447.361 340.754 444.108C337.498 440.854 332.219 440.854 328.963 444.108L271.244 501.792C269.617 503.417 268.803 505.552 268.803 507.684C268.803 509.815 269.617 511.948 271.246 513.577C274.501 516.83 279.781 516.83 283.037 513.575L340.754 455.892Z" fill="#EECBF3"/>
</g>
<g opacity="0.53">
<path d="M340.754 559.471L283.036 501.792C279.781 498.538 274.501 498.538 271.246 501.792C269.617 503.417 268.803 505.552 268.803 507.684C268.803 509.815 269.617 511.948 271.246 513.575L328.963 571.254C332.219 574.509 337.498 574.509 340.754 571.254C344.011 568.002 344.011 562.722 340.754 559.471Z" fill="#FE8A7B"/>
</g>
<g opacity="0.53">
<path d="M340.754 571.253C344.011 568.002 344.011 562.724 340.754 559.469C337.498 556.217 332.219 556.217 328.963 559.471L271.244 617.155C269.617 618.78 268.803 620.915 268.803 623.046C268.803 625.178 269.617 627.311 271.246 628.94C274.501 632.194 279.781 632.194 283.037 628.938L340.754 571.253Z" fill="#E9EDEE"/>
</g>
<g opacity="0.65">
<path d="M340.754 628.937C344.011 625.684 344.011 620.406 340.754 617.155C337.498 613.9 332.219 613.9 328.963 617.155L271.246 674.834C269.617 676.459 268.803 678.592 268.803 680.725C268.803 682.857 269.617 684.99 271.246 686.617C274.501 689.873 279.781 689.873 283.036 686.617L340.754 628.937Z" fill="#F7E6F9"/>
</g>
<g opacity="0.52">
<path d="M340.754 686.617C344.011 683.366 344.011 678.088 340.754 674.834C337.498 671.579 332.219 671.579 328.963 674.835L271.244 732.519C269.617 734.144 268.803 736.277 268.803 738.41C268.803 740.542 269.617 742.675 271.246 744.304C274.501 747.558 279.781 747.558 283.037 744.302L340.754 686.617Z" fill="#FD624D"/>
</g>
<g opacity="0.53">
<path d="M340.754 744.301C344.008 741.05 344.011 735.771 340.754 732.519C337.498 729.264 332.219 729.264 328.963 732.519L271.246 790.196C269.618 791.822 268.803 793.953 268.803 796.088C268.803 798.22 269.618 800.353 271.246 801.98C274.501 805.234 279.781 805.234 283.036 801.98L340.754 744.301Z" fill="#FE8F80"/>
</g>
<g opacity="0.4">
<path d="M340.754 847.88L283.037 790.196C279.781 786.942 274.501 786.942 271.246 790.195C269.617 791.822 268.803 793.953 268.803 796.088C268.803 798.22 269.617 800.353 271.244 801.98L328.963 859.664C332.219 862.918 337.498 862.918 340.754 859.665C344.009 856.411 344.012 851.133 340.754 847.88Z" fill="#FEA599"/>
</g>
<g opacity="0.3">
<path d="M340.754 905.557L283.036 847.88C279.781 844.624 274.501 844.624 271.246 847.88C269.617 849.506 268.803 851.639 268.803 853.772C268.803 855.903 269.617 858.036 271.246 859.664L328.963 917.341C332.219 920.595 337.498 920.595 340.754 917.341C344.011 914.088 344.011 908.81 340.754 905.557Z" fill="#EDC8F2"/>
</g>
<g opacity="0.51">
<path d="M283.037 40.3363L225.318 -17.3442C222.064 -20.5985 216.783 -20.5985 213.528 -17.3443C211.9 -15.7171 211.086 -13.5855 211.086 -11.4524C211.086 -9.3193 211.9 -7.18769 213.528 -5.56058L271.247 52.12C274.502 55.3742 279.782 55.3742 283.037 52.12C286.293 48.8658 286.293 43.5921 283.037 40.3363Z" fill="#FEA093"/>
</g>
<g opacity="0.96">
<path d="M283.037 98.02L225.32 40.3364C222.064 37.0822 216.783 37.0822 213.528 40.3364C211.9 41.9635 211.086 44.0951 211.086 46.2282C211.086 48.3598 211.9 50.493 213.527 52.1201L271.246 109.804C274.502 113.058 279.782 113.058 283.037 109.804C286.292 106.549 286.295 101.276 283.037 98.02Z" fill="#AFC0C3"/>
</g>
<g opacity="0.51">
<path d="M283.037 155.701L225.318 98.02C222.064 94.7658 216.783 94.7658 213.528 98.02C211.9 99.6471 211.086 101.78 211.086 103.912C211.086 106.043 211.9 108.177 213.528 109.804L271.247 167.484C274.502 170.738 279.782 170.738 283.037 167.484C286.293 164.23 286.293 158.955 283.037 155.701Z" fill="#EFCDF3"/>
</g>
<g opacity="0.41">
<path d="M283.037 213.383L225.318 155.701C222.064 152.446 216.783 152.446 213.528 155.701C211.9 157.328 211.086 159.459 211.086 161.593C211.086 163.724 211.9 165.859 213.528 167.484L271.247 225.166C274.502 228.421 279.782 228.421 283.037 225.166C286.292 221.912 286.295 216.637 283.037 213.383Z" fill="#FD7F6D"/>
</g>
<g opacity="0.55">
<path d="M283.037 225.166C286.293 221.912 286.293 216.637 283.037 213.383C279.782 210.128 274.502 210.128 271.247 213.383L213.528 271.065C211.9 272.692 211.086 274.825 211.086 276.957C211.086 279.09 211.9 281.221 213.528 282.848C216.783 286.103 222.064 286.103 225.318 282.848L283.037 225.166Z" fill="#CDD8DA"/>
</g>
<g opacity="0.37">
<path d="M283.037 328.744L225.318 271.063C222.064 267.809 216.783 267.809 213.528 271.063C211.9 272.69 211.086 274.824 211.086 276.955C211.086 279.088 211.9 281.22 213.528 282.847L271.247 340.528C274.502 343.782 279.782 343.782 283.037 340.528C286.293 337.273 286.293 332 283.037 328.744Z" fill="#FD7D6B"/>
</g>
<g opacity="0.84">
<path d="M283.037 386.428L225.318 328.745C222.064 325.491 216.783 325.491 213.528 328.745C211.9 330.373 211.086 332.504 211.086 334.637C211.086 336.769 211.9 338.904 213.528 340.529L271.247 398.211C274.502 401.466 279.782 401.466 283.037 398.211C286.292 394.957 286.295 389.68 283.037 386.428Z" fill="#A1B5B8"/>
</g>
<g opacity="0.78">
<path d="M283.037 398.211C286.292 394.957 286.297 389.682 283.037 386.428C279.782 383.173 274.502 383.173 271.247 386.428L213.529 444.108C211.9 445.735 211.086 447.867 211.086 450C211.086 452.133 211.9 454.265 213.529 455.892C216.783 459.145 222.064 459.145 225.318 455.892L283.037 398.211Z" fill="#79959A"/>
</g>
<g opacity="0.74">
<path d="M283.037 455.892C286.293 452.638 286.293 447.361 283.037 444.108C279.782 440.854 274.502 440.854 271.246 444.108L213.527 501.792C211.9 503.417 211.086 505.552 211.086 507.684C211.086 509.815 211.9 511.948 213.528 513.577C216.783 516.83 222.064 516.83 225.32 513.575L283.037 455.892Z" fill="#FD6B57"/>
</g>
<g opacity="0.69">
<path d="M283.037 559.471L225.318 501.792C222.064 498.538 216.783 498.538 213.528 501.792C211.9 503.417 211.086 505.552 211.086 507.684C211.086 509.815 211.9 511.948 213.528 513.575L271.247 571.254C274.502 574.509 279.782 574.509 283.037 571.254C286.293 568.002 286.293 562.722 283.037 559.471Z" fill="#FEB1A6"/>
</g>
<g opacity="0.37">
<path d="M283.037 617.155L225.318 559.471C222.062 556.217 216.782 556.217 213.527 559.469C211.899 561.096 211.085 563.23 211.085 565.363C211.085 567.494 211.899 569.627 213.526 571.255L271.244 628.938C274.501 632.192 279.781 632.192 283.036 628.94C286.292 625.685 286.293 620.407 283.037 617.155Z" fill="#F9EDFB"/>
</g>
<g opacity="0.34">
<path d="M283.037 628.937C286.292 625.685 286.297 620.407 283.037 617.155C279.782 613.9 274.502 613.9 271.247 617.155L213.529 674.834C211.9 676.459 211.086 678.591 211.086 680.725C211.086 682.857 211.9 684.99 213.529 686.617C216.783 689.873 222.064 689.873 225.318 686.617L283.037 628.937Z" fill="#EFCDF3"/>
</g>
<g opacity="0.64">
<path d="M283.037 686.617C286.292 683.366 286.293 678.088 283.036 674.834C279.781 671.579 274.501 671.579 271.244 674.835L213.526 732.519C211.899 734.144 211.085 736.277 211.085 738.41C211.085 740.542 211.899 742.675 213.527 744.304C216.782 747.558 222.062 747.558 225.318 744.302L283.037 686.617Z" fill="#FEBBB1"/>
</g>
<g opacity="0.82">
<path d="M283.037 744.302C286.292 741.048 286.293 735.771 283.039 732.519C279.782 729.265 274.502 729.264 271.247 732.517L213.528 790.195C211.9 791.822 211.086 793.953 211.086 796.088C211.086 798.22 211.9 800.353 213.527 801.98C216.783 805.234 222.064 805.234 225.318 801.981L283.037 744.302Z" fill="#749197"/>
</g>
<g opacity="0.61">
<path d="M283.037 801.978C286.292 798.726 286.293 793.449 283.036 790.195C279.781 786.941 274.501 786.941 271.244 790.196L213.526 847.88C211.899 849.505 211.085 851.639 211.085 853.772C211.085 855.903 211.899 858.036 213.527 859.665C216.782 862.918 222.062 862.918 225.318 859.664L283.037 801.978Z" fill="#FD7F6D"/>
</g>
<g opacity="0.87">
<path d="M283.037 905.556L225.318 847.878C222.064 844.624 216.783 844.624 213.527 847.88C211.9 849.505 211.086 851.639 211.086 853.772C211.086 855.903 211.9 858.036 213.528 859.665L271.247 917.343C274.502 920.595 279.782 920.595 283.039 917.341C286.292 914.088 286.293 908.812 283.037 905.556Z" fill="#FE9182"/>
</g>
<g opacity="0.62">
<path d="M225.317 -5.55911C228.573 -8.81333 228.573 -14.0886 225.317 -17.3428C222.062 -20.597 216.782 -20.597 213.527 -17.3428L155.808 40.3378C154.18 41.9649 153.366 44.0965 153.366 46.2296C153.366 48.3612 154.18 50.4944 155.808 52.1215C159.063 55.3757 164.343 55.3757 167.598 52.1215L225.317 -5.55911Z" fill="#FE8979"/>
</g>
<g opacity="0.9">
<path d="M225.319 52.1201C228.572 48.8659 228.573 43.5891 225.317 40.3364C222.062 37.0822 216.782 37.0822 213.526 40.3364L155.808 98.02C154.18 99.6471 153.366 101.78 153.366 103.912C153.366 106.043 154.18 108.177 155.808 109.804C159.063 113.058 164.344 113.058 167.6 109.804L225.319 52.1201Z" fill="#F5DFF8"/>
</g>
<g opacity="0.41">
<path d="M225.317 109.804C228.573 106.549 228.573 101.274 225.317 98.02C222.062 94.7658 216.782 94.7658 213.527 98.02L155.808 155.701C154.18 157.328 153.366 159.459 153.366 161.592C153.366 163.724 154.18 165.859 155.808 167.484C159.063 170.738 164.343 170.738 167.598 167.484L225.317 109.804Z" fill="#A5B8BC"/>
</g>
<g opacity="0.58">
<path d="M225.317 167.484C228.573 164.23 228.573 158.953 225.317 155.701C222.062 152.446 216.782 152.446 213.527 155.701L155.808 213.383C154.18 215.01 153.366 217.141 153.366 219.275C153.366 221.408 154.18 223.539 155.808 225.166C159.063 228.421 164.343 228.421 167.598 225.166L225.317 167.484Z" fill="#E7B4ED"/>
</g>
<g opacity="0.37">
<path d="M225.317 225.166C228.573 221.912 228.573 216.637 225.317 213.383C222.062 210.128 216.782 210.128 213.527 213.383L155.808 271.065C154.18 272.692 153.366 274.825 153.366 276.957C153.366 279.09 154.18 281.221 155.808 282.848C159.063 286.103 164.343 286.103 167.598 282.848L225.317 225.166Z" fill="#FE8A7B"/>
</g>
<g opacity="0.97">
<path d="M225.317 282.849C228.573 279.594 228.573 274.318 225.317 271.065C222.062 267.811 216.782 267.811 213.527 271.065L155.808 328.745C154.18 330.373 153.366 332.504 153.366 334.637C153.366 336.769 154.18 338.904 155.808 340.529C159.063 343.783 164.343 343.783 167.598 340.529L225.317 282.849Z" fill="#FEB9B0"/>
</g>
<g opacity="0.85">
<path d="M225.317 340.529C228.573 337.275 228.573 331.998 225.317 328.745C222.062 325.491 216.782 325.491 213.527 328.745L155.808 386.428C154.18 388.055 153.366 390.186 153.366 392.319C153.366 394.453 154.18 396.584 155.808 398.211C159.063 401.466 164.343 401.466 167.598 398.211L225.317 340.529Z" fill="#A3B7BA"/>
</g>
<g opacity="0.51">
<path d="M225.317 444.107L167.598 386.426C164.343 383.172 159.063 383.172 155.808 386.426C154.18 388.053 153.366 390.185 153.366 392.318C153.366 394.451 154.18 396.583 155.808 398.21L213.527 455.89C216.782 459.143 222.062 459.143 225.317 455.89C228.575 452.636 228.575 447.362 225.317 444.107Z" fill="#94ABAF"/>
</g>
<g opacity="0.76">
<path d="M225.318 501.79L167.6 444.107C164.343 440.852 159.063 440.852 155.808 444.107C154.18 445.734 153.366 447.865 153.366 449.998C153.366 452.132 154.18 454.263 155.808 455.89L213.526 513.572C216.782 516.827 222.062 516.827 225.317 513.574C228.573 510.321 228.575 505.044 225.318 501.79Z" fill="#FD7D6B"/>
</g>
<g opacity="0.92">
<path d="M225.317 559.471L167.598 501.792C164.343 498.538 159.063 498.538 155.808 501.792C154.18 503.417 153.366 505.552 153.366 507.684C153.366 509.815 154.18 511.948 155.808 513.575L213.527 571.254C216.782 574.509 222.062 574.509 225.317 571.254C228.575 568.002 228.575 562.722 225.317 559.471Z" fill="#D5DEDF"/>
</g>
<g opacity="0.38">
<path d="M225.318 571.253C228.572 568.002 228.573 562.724 225.317 559.469C222.062 556.217 216.782 556.217 213.525 559.471L155.807 617.155C154.18 618.78 153.366 620.915 153.366 623.046C153.366 625.178 154.18 627.311 155.808 628.94C159.063 632.194 164.343 632.194 167.6 628.938L225.318 571.253Z" fill="#AABCC0"/>
</g>
<g opacity="0.61">
<path d="M225.317 628.937C228.572 625.685 228.575 620.407 225.317 617.155C222.062 613.9 216.782 613.9 213.527 617.155L155.808 674.834C154.18 676.459 153.366 678.591 153.366 680.725C153.366 682.857 154.18 684.99 155.808 686.617C159.063 689.873 164.343 689.873 167.598 686.617L225.317 628.937Z" fill="#FE9182"/>
</g>
<g opacity="0.35">
<path d="M225.318 732.517L167.6 674.834C164.343 671.579 159.063 671.579 155.808 674.832C154.18 676.459 153.366 678.591 153.366 680.725C153.366 682.857 154.18 684.99 155.807 686.617L213.526 744.301C216.782 747.555 222.062 747.555 225.317 744.302C228.572 741.05 228.575 735.771 225.318 732.517Z" fill="#BCCACD"/>
</g>
<g opacity="0.73">
<path d="M225.317 744.302C228.572 741.048 228.573 735.771 225.318 732.519C222.062 729.265 216.782 729.264 213.527 732.517L155.808 790.195C154.18 791.822 153.366 793.953 153.366 796.088C153.366 798.22 154.18 800.353 155.807 801.98C159.063 805.234 164.343 805.234 167.598 801.981L225.317 744.302Z" fill="#6F8D93"/>
</g>
<g opacity="0.32">
<path d="M225.318 801.978C228.572 798.726 228.573 793.449 225.317 790.195C222.062 786.941 216.782 786.941 213.525 790.196L155.807 847.88C154.18 849.505 153.366 851.639 153.366 853.772C153.366 855.903 154.18 858.036 155.808 859.665C159.063 862.918 164.343 862.918 167.6 859.664L225.318 801.978Z" fill="#AABCC0"/>
</g>
<g opacity="0.4">
<path d="M225.317 905.556L167.598 847.878C164.343 844.624 159.063 844.624 155.807 847.88C154.18 849.505 153.366 851.639 153.366 853.772C153.366 855.903 154.18 858.036 155.808 859.665L213.527 917.343C216.782 920.595 222.062 920.595 225.318 917.341C228.573 914.088 228.575 908.812 225.317 905.556Z" fill="#839DA2"/>
</g>
<g opacity="0.51">
<path d="M167.598 40.3363L109.878 -17.3442C106.623 -20.5985 101.343 -20.5985 98.0866 -17.3443C96.46 -15.7171 95.6459 -13.5855 95.6459 -11.4524C95.6459 -9.3193 96.46 -7.18769 98.0882 -5.56058L155.808 52.12C159.063 55.3742 164.343 55.3742 167.6 52.12C170.853 48.8658 170.855 43.5906 167.598 40.3363Z" fill="#FE988A"/>
</g>
<g opacity="0.5">
<path d="M167.598 52.1201C170.855 48.8659 170.855 43.5906 167.598 40.3364C164.343 37.0822 159.063 37.0822 155.808 40.3364L98.0882 98.02C96.46 99.6471 95.6459 101.78 95.6459 103.912C95.6459 106.043 96.46 108.177 98.0882 109.804C101.345 113.058 106.623 113.058 109.878 109.804L167.598 52.1201Z" fill="#FEA89D"/>
</g>
<g opacity="0.39">
<path d="M167.598 155.701L109.878 98.02C106.623 94.7658 101.343 94.7658 98.0866 98.02C96.46 99.6471 95.6459 101.78 95.6459 103.912C95.6459 106.043 96.46 108.177 98.0882 109.804L155.808 167.484C159.063 170.738 164.343 170.738 167.6 167.484C170.853 164.23 170.855 158.953 167.598 155.701Z" fill="#F4DDF7"/>
</g>
<g opacity="0.69">
<path d="M167.598 167.484C170.855 164.23 170.855 158.955 167.598 155.701C164.343 152.446 159.063 152.446 155.808 155.701L98.0882 213.383C96.46 215.01 95.6459 217.141 95.6459 219.275C95.6459 221.408 96.46 223.539 98.0882 225.166C101.345 228.421 106.623 228.421 109.878 225.166L167.598 167.484Z" fill="#F3DAF6"/>
</g>
<g opacity="0.81">
<path d="M167.598 225.166C170.855 221.912 170.855 216.637 167.598 213.383C164.343 210.128 159.063 210.128 155.808 213.383L98.0882 271.065C96.46 272.692 95.6459 274.825 95.6459 276.957C95.6459 279.088 96.46 281.221 98.0882 282.848C101.345 286.103 106.623 286.103 109.878 282.848L167.598 225.166Z" fill="#F3D8F6"/>
</g>
<g opacity="0.38">
<path d="M167.598 282.849C170.855 279.594 170.853 274.319 167.6 271.065C164.343 267.811 159.063 267.811 155.808 271.065L98.0882 328.745C96.46 330.373 95.6459 332.504 95.6459 334.637C95.6459 336.769 96.46 338.902 98.0866 340.529C101.345 343.783 106.623 343.783 109.878 340.529L167.598 282.849Z" fill="#F1D2F4"/>
</g>
<g opacity="0.35">
<path d="M167.598 386.428L109.878 328.745C106.623 325.491 101.343 325.491 98.0882 328.745C96.46 330.373 95.6459 332.504 95.6459 334.637C95.6459 336.77 96.46 338.902 98.0882 340.529L155.808 398.211C159.063 401.466 164.343 401.466 167.598 398.211C170.855 394.956 170.855 389.682 167.598 386.428Z" fill="#FEB1A6"/>
</g>
<g opacity="0.61">
<path d="M167.598 444.107L109.878 386.426C106.623 383.172 101.343 383.172 98.0866 386.426C96.46 388.053 95.6459 390.185 95.6459 392.318C95.6459 394.451 96.46 396.583 98.0882 398.21L155.808 455.89C159.063 459.143 164.343 459.143 167.6 455.89C170.853 452.636 170.855 447.361 167.598 444.107Z" fill="#FD7D6B"/>
</g>
<g opacity="0.46">
<path d="M167.598 501.79L109.878 444.107C106.623 440.852 101.343 440.852 98.0882 444.107C96.46 445.734 95.6459 447.865 95.6459 449.998C95.6459 452.132 96.46 454.263 98.0882 455.89L155.808 513.572C159.063 516.827 164.343 516.827 167.598 513.572C170.853 510.323 170.856 505.044 167.598 501.79Z" fill="#92A9AD"/>
</g>
<g opacity="0.79">
<path d="M167.598 559.469L109.878 501.79C106.623 498.536 101.343 498.536 98.0866 501.792C96.46 503.417 95.6459 505.552 95.6459 507.684C95.6459 509.815 96.46 511.948 98.0882 513.577L155.808 571.256C159.063 574.509 164.343 574.509 167.6 571.254C170.853 568.002 170.855 562.723 167.598 559.469Z" fill="#809BA0"/>
</g>
<g opacity="0.44">
<path d="M167.598 617.154L109.878 559.471C106.623 556.217 101.343 556.217 98.0882 559.471C96.46 561.096 95.6459 563.228 95.6459 565.363C95.6459 567.494 96.46 569.627 98.0882 571.255L155.808 628.938C159.063 632.192 164.343 632.192 167.598 628.938C170.853 625.687 170.856 620.407 167.598 617.154Z" fill="#8DA5A9"/>
</g>
<g opacity="0.38">
<path d="M167.598 674.832L109.878 617.153C106.623 613.9 101.343 613.9 98.0866 617.154C96.46 618.78 95.6459 620.915 95.6459 623.046C95.6459 625.178 96.46 627.311 98.0882 628.94L155.808 686.619C159.063 689.873 164.343 689.873 167.6 686.617C170.853 683.364 170.855 678.088 167.598 674.832Z" fill="#BECCCF"/>
</g>
<g opacity="0.51">
<path d="M167.598 732.517L109.878 674.833C106.623 671.579 101.343 671.579 98.0882 674.833C96.46 676.459 95.6459 678.591 95.6459 680.725C95.6459 682.857 96.46 684.99 98.0882 686.617L155.808 744.301C159.063 747.555 164.343 747.555 167.598 744.301C170.853 741.05 170.856 735.771 167.598 732.517Z" fill="#587C82"/>
</g>
<g opacity="0.87">
<path d="M167.598 790.195L109.878 732.517C106.623 729.263 101.343 729.263 98.0866 732.519C96.46 734.144 95.6459 736.277 95.6459 738.41C95.6459 740.542 96.46 742.675 98.0882 744.304L155.808 801.981C159.063 805.234 164.343 805.234 167.6 801.98C170.853 798.727 170.855 793.449 167.598 790.195Z" fill="#FE9486"/>
</g>
<g opacity="0.98">
<path d="M167.598 801.978C170.855 798.726 170.855 793.447 167.598 790.196C164.343 786.942 159.063 786.942 155.808 790.196L98.0882 847.88C96.46 849.506 95.6459 851.639 95.6459 853.772C95.6459 855.903 96.46 858.037 98.0882 859.664C101.345 862.918 106.623 862.918 109.878 859.664L167.598 801.978Z" fill="#AFC0C3"/>
</g>
<g opacity="0.8">
<path d="M167.598 859.664C170.853 856.411 170.855 851.133 167.6 847.88C164.343 844.624 159.063 844.624 155.808 847.878L98.0882 905.556C96.46 907.183 95.6459 909.315 95.6459 911.449C95.6459 913.581 96.46 915.714 98.0866 917.341C101.345 920.595 106.623 920.595 109.878 917.343L167.598 859.664Z" fill="#51767D"/>
</g>
<g opacity="0.62">
<path d="M109.878 -5.55911C113.133 -8.81333 113.135 -14.087 109.88 -17.3428C106.623 -20.597 101.343 -20.597 98.0883 -17.3428L40.3681 40.3378C38.7399 41.9649 37.9258 44.0965 37.9258 46.2296C37.9258 48.3612 38.7399 50.4944 40.3666 52.1215C43.6229 55.3757 48.9032 55.3757 52.158 52.1215L109.878 -5.55911Z" fill="#FE8C7C"/>
</g>
<g opacity="0.47">
<path d="M109.878 98.02L52.158 40.3364C48.9032 37.0822 43.6229 37.0822 40.3681 40.3364C38.7399 41.9635 37.9258 44.0951 37.9258 46.2282C37.9258 48.3598 38.7399 50.493 40.3681 52.1201L98.0883 109.804C101.345 113.058 106.623 113.058 109.878 109.804C113.133 106.549 113.136 101.274 109.878 98.02Z" fill="#ECC3F1"/>
</g>
<g opacity="0.34">
<path d="M109.878 109.804C113.133 106.549 113.135 101.276 109.88 98.02C106.623 94.7658 101.343 94.7658 98.0883 98.02L40.3681 155.701C38.7399 157.328 37.9258 159.459 37.9258 161.592C37.9258 163.724 38.7399 165.857 40.3666 167.484C43.6229 170.738 48.9032 170.738 52.158 167.484L109.878 109.804Z" fill="#FE9B8D"/>
</g>
<g opacity="0.68">
<path d="M109.878 213.383L52.158 155.701C48.9032 152.446 43.6229 152.446 40.3681 155.701C38.7399 157.328 37.9258 159.459 37.9258 161.593C37.9258 163.726 38.7399 165.857 40.3681 167.484L98.0883 225.166C101.345 228.421 106.623 228.421 109.878 225.166C113.135 221.912 113.135 216.637 109.878 213.383Z" fill="#D5DEDF"/>
</g>
<g opacity="0.69">
<path d="M109.878 225.166C113.133 221.912 113.136 216.637 109.878 213.383C106.623 210.128 101.343 210.128 98.0883 213.383L40.3681 271.065C38.7399 272.692 37.9258 274.825 37.9258 276.957C37.9258 279.088 38.7399 281.221 40.3681 282.848C43.6229 286.103 48.9032 286.103 52.158 282.848L109.878 225.166Z" fill="#94ABAF"/>
</g>
<g opacity="0.67">
<path d="M109.878 328.744L52.158 271.063C48.9032 267.809 43.6229 267.809 40.3666 271.063C38.7399 272.69 37.9258 274.824 37.9258 276.955C37.9258 279.088 38.7399 281.22 40.3681 282.847L98.0883 340.528C101.345 343.782 106.623 343.782 109.88 340.528C113.133 337.273 113.135 331.998 109.878 328.744Z" fill="#8DA5A9"/>
</g>
<g opacity="0.95">
<path d="M109.878 386.428L52.158 328.745C48.9032 325.491 43.6229 325.491 40.3681 328.745C38.7399 330.373 37.9258 332.504 37.9258 334.637C37.9258 336.77 38.7399 338.902 40.3681 340.529L98.0883 398.211C101.345 401.466 106.623 401.466 109.878 398.211C113.135 394.956 113.135 389.682 109.878 386.428Z" fill="#FE988A"/>
</g>
<g opacity="0.32">
<path d="M109.878 398.211C113.133 394.957 113.135 389.683 109.88 386.428C106.623 383.173 101.343 383.173 98.0883 386.428L40.3681 444.108C38.7399 445.735 37.9258 447.867 37.9258 450C37.9258 452.133 38.7399 454.265 40.3666 455.892C43.6229 459.145 48.9032 459.145 52.158 455.892L109.878 398.211Z" fill="#A1B5B8"/>
</g>
<g opacity="0.43">
<path d="M109.878 455.892C113.135 452.638 113.135 447.362 109.878 444.108C106.623 440.854 101.343 440.854 98.0883 444.108L40.3681 501.792C38.7399 503.417 37.9258 505.552 37.9258 507.684C37.9258 509.815 38.7399 511.948 40.3681 513.575C43.6229 516.83 48.9032 516.83 52.158 513.575L109.878 455.892Z" fill="#EBC1F1"/>
</g>
<g opacity="0.43">
<path d="M109.878 559.469L52.158 501.79C48.9032 498.536 43.6229 498.536 40.3666 501.792C38.7399 503.417 37.9258 505.552 37.9258 507.684C37.9258 509.815 38.7399 511.948 40.3681 513.577L98.0883 571.256C101.345 574.509 106.623 574.509 109.88 571.254C113.133 568.002 113.135 562.723 109.878 559.469Z" fill="#B7C6C9"/>
</g>
<g opacity="0.64">
<path d="M109.878 571.253C113.135 568.002 113.135 562.722 109.878 559.471C106.623 556.217 101.343 556.217 98.0883 559.471L40.3681 617.154C38.7399 618.78 37.9258 620.915 37.9258 623.046C37.9258 625.178 38.7399 627.311 40.3681 628.938C43.6229 632.192 48.9032 632.192 52.158 628.938L109.878 571.253Z" fill="#B2C2C5"/>
</g>
<g opacity="0.61">
<path d="M109.878 628.938C113.133 625.685 113.135 620.407 109.88 617.154C106.623 613.9 101.343 613.9 98.0883 617.153L40.3681 674.832C38.7399 676.459 37.9258 678.591 37.9258 680.725C37.9258 682.857 38.7399 684.99 40.3666 686.617C43.6229 689.873 48.9032 689.873 52.158 686.619L109.878 628.938Z" fill="#FD7D6B"/>
</g>
<g opacity="0.62">
<path d="M109.878 686.617C113.135 683.366 113.135 678.086 109.878 674.835C106.623 671.581 101.343 671.581 98.0883 674.835L40.3681 732.519C38.7399 734.144 37.9258 736.277 37.9258 738.411C37.9258 740.542 38.7399 742.675 40.3681 744.302C43.6229 747.557 48.9032 747.557 52.158 744.302L109.878 686.617Z" fill="#A3B7BA"/>
</g>
<g opacity="0.65">
<path d="M109.878 790.195L52.158 732.517C48.9032 729.263 43.6229 729.263 40.3666 732.519C38.7399 734.144 37.9258 736.277 37.9258 738.41C37.9258 740.542 38.7399 742.675 40.3681 744.304L98.0883 801.981C101.345 805.234 106.623 805.234 109.88 801.98C113.133 798.727 113.135 793.449 109.878 790.195Z" fill="#FEACA0"/>
</g>
<g opacity="0.63">
<path d="M109.878 801.978C113.135 798.726 113.135 793.447 109.878 790.196C106.623 786.942 101.343 786.942 98.0883 790.196L40.3681 847.88C38.7399 849.506 37.9258 851.639 37.9258 853.772C37.9258 855.903 38.7399 858.037 40.3681 859.664C43.6229 862.918 48.9032 862.918 52.158 859.664L109.878 801.978Z" fill="#E7B4ED"/>
</g>
<g opacity="0.49">
<path d="M109.878 859.664C113.133 856.411 113.135 851.133 109.88 847.88C106.623 844.624 101.343 844.624 98.0883 847.878L40.3681 905.556C38.7399 907.183 37.9258 909.315 37.9258 911.449C37.9258 913.581 38.7399 915.714 40.3666 917.341C43.6229 920.595 48.9032 920.595 52.158 917.343L109.878 859.664Z" fill="#B4C4C7"/>
</g>
<g opacity="0.79">
<path d="M52.1579 40.3363L-5.56077 -17.3442C-8.81562 -20.5985 -14.0958 -20.5985 -17.3507 -17.3443C-18.9789 -15.7171 -19.793 -13.5855 -19.793 -11.4524C-19.793 -9.3193 -18.9789 -7.18769 -17.3507 -5.56058L40.368 52.12C43.6228 55.3742 48.9031 55.3742 52.1579 52.12C55.4143 48.8658 55.4143 43.5921 52.1579 40.3363Z" fill="#FFD7D2"/>
</g>
<g opacity="0.7">
<path d="M52.1579 98.02L-5.55924 40.3364C-8.81561 37.0822 -14.0958 37.0822 -17.3507 40.3364C-18.9789 41.9635 -19.793 44.0951 -19.793 46.2282C-19.793 48.3598 -18.9789 50.493 -17.3522 52.1201L40.3665 109.804C43.6228 113.058 48.9031 113.058 52.1579 109.804C55.4128 106.549 55.4158 101.276 52.1579 98.02Z" fill="#F6E3F8"/>
</g>
<g opacity="0.73">
<path d="M52.158 109.804C55.4144 106.549 55.4159 101.274 52.158 98.02C48.9031 94.7658 43.6229 94.7658 40.368 98.02L-17.3506 155.701C-18.9788 157.328 -19.7929 159.459 -19.7929 161.592C-19.7929 163.724 -18.9788 165.859 -17.3506 167.484C-14.0958 170.738 -8.81557 170.738 -5.56072 167.484L52.158 109.804Z" fill="#6A898F"/>
</g>
<g opacity="0.44">
<path d="M52.1579 213.383L-5.56077 155.701C-8.81562 152.446 -14.0958 152.446 -17.3507 155.701C-18.9789 157.328 -19.793 159.459 -19.793 161.593C-19.793 163.724 -18.9789 165.859 -17.3507 167.484L40.368 225.166C43.6228 228.421 48.9031 228.421 52.1579 225.166C55.4128 221.912 55.4158 216.637 52.1579 213.383Z" fill="#67888D"/>
</g>
<g opacity="0.39">
<path d="M52.1579 225.166C55.4143 221.912 55.4143 216.637 52.1579 213.383C48.9031 210.128 43.6229 210.128 40.368 213.383L-17.3507 271.065C-18.9789 272.692 -19.793 274.825 -19.793 276.957C-19.793 279.09 -18.9789 281.221 -17.3507 282.848C-14.0958 286.103 -8.81562 286.103 -5.56077 282.848L52.1579 225.166Z" fill="#A8BABE"/>
</g>
<g opacity="0.9">
<path d="M52.158 282.849C55.4144 279.594 55.4159 274.318 52.158 271.065C48.9031 267.811 43.6229 267.811 40.368 271.065L-17.3506 328.745C-18.9788 330.373 -19.7929 332.504 -19.7929 334.637C-19.7929 336.769 -18.9788 338.904 -17.3506 340.529C-14.0958 343.783 -8.81557 343.783 -5.56072 340.529L52.158 282.849Z" fill="#F2D5F5"/>
</g>
<g opacity="0.85">
<path d="M52.1579 340.529C55.4143 337.275 55.4143 331.998 52.1579 328.745C48.9031 325.491 43.6229 325.491 40.368 328.745L-17.3507 386.428C-18.9789 388.055 -19.793 390.186 -19.793 392.319C-19.793 394.453 -18.9789 396.584 -17.3507 398.211C-14.0958 401.466 -8.81562 401.466 -5.56077 398.211L52.1579 340.529Z" fill="#FE9B8D"/>
</g>
<g opacity="0.74">
<path d="M52.158 398.211C55.4144 394.957 55.4159 389.682 52.158 386.428C48.9031 383.173 43.6229 383.173 40.368 386.428L-17.3506 444.108C-18.9788 445.735 -19.7929 447.867 -19.7929 450C-19.7929 452.133 -18.9788 454.265 -17.3506 455.892C-14.0958 459.145 -8.81557 459.145 -5.56072 455.892L52.158 398.211Z" fill="#FE9B8D"/>
</g>
<g opacity="0.88">
<path d="M52.1579 501.79L-5.55924 444.107C-8.81561 440.852 -14.0958 440.852 -17.3507 444.107C-18.9789 445.734 -19.793 447.865 -19.793 449.998C-19.793 452.132 -18.9789 454.263 -17.3522 455.89L40.3665 513.572C43.6228 516.827 48.9031 516.827 52.1579 513.574C55.4128 510.321 55.4158 505.044 52.1579 501.79Z" fill="#B2C2C5"/>
</g>
<g opacity="0.64">
<path d="M52.1579 559.471L-5.56077 501.792C-8.81562 498.538 -14.0958 498.538 -17.3507 501.792C-18.9789 503.417 -19.793 505.552 -19.793 507.684C-19.793 509.815 -18.9789 511.948 -17.3507 513.575L40.368 571.254C43.6228 574.509 48.9031 574.509 52.1579 571.254C55.4143 568.002 55.4143 562.722 52.1579 559.471Z" fill="#ECC3F1"/>
</g>
<g opacity="0.51">
<path d="M52.1595 571.253C55.4143 568.002 55.4144 562.724 52.158 559.469C48.9032 556.217 43.6229 556.217 40.3665 559.471L-17.3521 617.155C-18.9788 618.78 -19.7929 620.915 -19.7929 623.046C-19.7929 625.178 -18.9788 627.311 -17.3506 628.94C-14.0957 632.194 -8.81554 632.194 -5.55917 628.938L52.1595 571.253Z" fill="#FD7D6B"/>
</g>
<g opacity="0.65">
<path d="M52.1579 674.834L-5.56077 617.155C-8.81562 613.9 -14.0958 613.9 -17.3507 617.155C-18.9789 618.78 -19.793 620.915 -19.793 623.046C-19.793 625.178 -18.9789 627.311 -17.3507 628.938L40.368 686.617C43.6228 689.873 48.9031 689.873 52.1579 686.617C55.4143 683.365 55.4143 678.086 52.1579 674.834Z" fill="#D5DEDF"/>
</g>
<g opacity="0.77">
<path d="M52.1595 686.617C55.4143 683.366 55.4144 678.088 52.158 674.834C48.9032 671.579 43.6229 671.579 40.3665 674.835L-17.3521 732.519C-18.9788 734.144 -19.7929 736.277 -19.7929 738.41C-19.7929 740.542 -18.9788 742.675 -17.3506 744.304C-14.0957 747.558 -8.81554 747.558 -5.55917 744.302L52.1595 686.617Z" fill="#809BA0"/>
</g>
<g opacity="0.64">
<path d="M52.158 744.302C55.4144 741.048 55.4143 735.771 52.1595 732.519C48.9031 729.265 43.6229 729.264 40.3681 732.517L-17.3506 790.195C-18.9788 791.822 -19.7929 793.953 -19.7929 796.088C-19.7929 798.22 -18.9788 800.353 -17.3521 801.98C-14.0958 805.234 -8.81555 805.234 -5.56069 801.981L52.158 744.302Z" fill="#99AFB3"/>
</g>
<g opacity="0.42">
<path d="M52.1595 801.978C55.4143 798.726 55.4144 793.449 52.158 790.195C48.9032 786.941 43.6229 786.941 40.3665 790.196L-17.3521 847.88C-18.9788 849.505 -19.7929 851.639 -19.7929 853.772C-19.7929 855.903 -18.9788 858.036 -17.3506 859.665C-14.0957 862.918 -8.81554 862.918 -5.55917 859.664L52.1595 801.978Z" fill="#F0D0F4"/>
</g>
<g opacity="0.96">
<path d="M52.158 859.664C55.4144 856.411 55.4143 851.133 52.1595 847.88C48.9031 844.624 43.6229 844.624 40.3681 847.878L-17.3506 905.556C-18.9788 907.183 -19.7929 909.315 -19.7929 911.449C-19.7929 913.581 -18.9788 915.714 -17.3521 917.341C-14.0958 920.595 -8.81555 920.595 -5.56069 917.343L52.158 859.664Z" fill="#BECCCF"/>
</g>
</g>
<defs>
<clipPath id="clip0_498_104666">
<rect width="1212" height="758" fill="white" transform="translate(685 -156) rotate(90)"/>
</clipPath>
</defs>
</svg>
